<svg id="svg" version="1.1" width="400" height="379.9163179916318" xmlns="http://www.w3.org/2000/svg" xmlns:xlink="http://www.w3.org/1999/xlink" style="display: block;"><g id="svgg"><path id="path0" d="M156.654 36.871 C 156.654 37.574,156.340 37.627,151.616 37.727 C 146.718 37.830,146.575 37.856,146.456 38.688 C 146.339 39.514,146.194 39.544,142.333 39.544 C 138.652 39.544,138.316 39.604,138.133 40.304 C 137.960 40.964,137.614 41.065,135.507 41.065 C 133.353 41.065,133.080 41.148,133.080 41.807 C 133.080 42.452,132.768 42.564,130.703 42.662 C 128.569 42.764,128.315 42.863,128.205 43.631 C 128.094 44.417,127.885 44.487,125.639 44.487 C 123.447 44.487,123.194 44.566,123.194 45.247 C 123.194 45.895,122.940 46.008,121.483 46.008 C 119.911 46.008,119.772 46.085,119.772 46.958 C 119.772 47.875,119.683 47.909,117.300 47.909 C 115.082 47.909,114.829 47.987,114.829 48.669 C 114.829 49.306,114.575 49.430,113.272 49.430 C 112.063 49.430,111.674 49.591,111.527 50.152 C 111.392 50.669,110.860 50.946,109.661 51.126 C 108.342 51.324,107.985 51.535,107.985 52.115 C 107.985 52.598,107.723 52.852,107.224 52.852 C 106.717 52.852,106.464 53.105,106.464 53.612 C 106.464 54.260,106.210 54.373,104.753 54.373 C 103.181 54.373,103.042 54.450,103.042 55.323 C 103.042 56.196,102.902 56.274,101.331 56.274 C 99.873 56.274,99.620 56.386,99.620 57.034 C 99.620 57.541,99.366 57.795,98.859 57.795 C 98.360 57.795,98.099 58.048,98.099 58.533 C 98.099 59.130,97.789 59.294,96.483 59.389 C 95.140 59.486,94.846 59.650,94.745 60.361 C 94.657 60.980,94.369 61.217,93.700 61.217 C 93.029 61.217,92.776 61.425,92.776 61.977 C 92.776 62.611,92.522 62.738,91.255 62.738 C 89.886 62.738,89.734 62.833,89.734 63.688 C 89.734 64.449,89.544 64.639,88.783 64.639 C 88.086 64.639,87.833 64.842,87.833 65.399 C 87.833 65.906,87.579 66.160,87.072 66.160 C 86.581 66.160,86.312 66.413,86.312 66.877 C 86.312 67.436,85.933 67.651,84.601 67.851 C 83.249 68.053,82.890 68.262,82.890 68.845 C 82.890 69.328,82.628 69.582,82.129 69.582 C 81.622 69.582,81.369 69.835,81.369 70.342 C 81.369 70.900,81.115 71.103,80.418 71.103 C 79.658 71.103,79.468 71.293,79.468 72.053 C 79.468 72.750,79.265 73.004,78.707 73.004 C 78.200 73.004,77.947 73.257,77.947 73.764 C 77.947 74.322,77.693 74.525,76.996 74.525 C 76.319 74.525,76.046 74.730,76.046 75.241 C 76.046 75.637,75.706 76.046,75.285 76.156 C 74.830 76.275,74.525 76.674,74.525 77.151 C 74.525 77.684,74.282 77.947,73.790 77.947 C 73.386 77.947,72.946 78.289,72.814 78.707 C 72.681 79.125,72.242 79.468,71.837 79.468 C 71.307 79.468,71.103 79.732,71.103 80.418 C 71.103 81.115,70.900 81.369,70.342 81.369 C 69.835 81.369,69.582 81.622,69.582 82.129 C 69.582 82.687,69.328 82.890,68.631 82.890 C 67.945 82.890,67.681 83.094,67.681 83.625 C 67.681 84.029,67.338 84.468,66.920 84.601 C 66.502 84.734,66.160 85.173,66.160 85.577 C 66.160 86.058,65.897 86.312,65.399 86.312 C 64.971 86.312,64.639 86.565,64.639 86.892 C 64.639 87.210,64.211 87.634,63.688 87.833 C 63.106 88.054,62.738 88.493,62.738 88.964 C 62.738 89.480,62.487 89.734,61.977 89.734 C 61.470 89.734,61.217 89.987,61.217 90.494 C 61.217 90.913,60.966 91.255,60.660 91.255 C 59.959 91.255,59.316 92.426,59.316 93.701 C 59.316 94.423,59.118 94.677,58.555 94.677 C 58.048 94.677,57.795 94.930,57.795 95.437 C 57.795 95.930,57.541 96.198,57.075 96.198 C 56.625 96.198,56.267 96.553,56.118 97.148 C 55.964 97.762,55.612 98.099,55.126 98.099 C 54.487 98.099,54.373 98.358,54.373 99.810 C 54.373 101.267,54.260 101.521,53.612 101.521 C 53.114 101.521,52.852 101.774,52.852 102.255 C 52.852 102.727,52.546 103.032,51.996 103.110 C 51.285 103.211,51.121 103.505,51.024 104.848 C 50.929 106.154,50.765 106.464,50.168 106.464 C 49.683 106.464,49.430 106.725,49.430 107.224 C 49.430 107.723,49.176 107.985,48.692 107.985 C 48.110 107.985,47.901 108.345,47.699 109.696 C 47.499 111.028,47.284 111.407,46.725 111.407 C 46.213 111.407,46.008 111.679,46.008 112.357 C 46.008 113.054,45.805 113.308,45.247 113.308 C 44.616 113.308,44.487 113.561,44.487 114.802 C 44.487 116.063,44.353 116.316,43.631 116.418 C 42.920 116.519,42.756 116.813,42.659 118.156 C 42.564 119.462,42.400 119.772,41.803 119.772 C 41.181 119.772,41.065 120.042,41.065 121.483 C 41.065 122.908,40.944 123.194,40.345 123.194 C 39.525 123.194,39.163 123.902,39.163 125.506 C 39.163 126.362,38.990 126.616,38.403 126.616 C 37.755 126.616,37.643 126.869,37.643 128.327 C 37.643 129.785,37.530 130.038,36.882 130.038 C 36.200 130.038,36.122 130.292,36.122 132.510 C 36.122 134.892,36.088 134.981,35.171 134.981 C 34.298 134.981,34.221 135.120,34.221 136.692 C 34.221 138.150,34.108 138.403,33.460 138.403 C 32.778 138.403,32.700 138.657,32.700 140.875 C 32.700 143.042,32.611 143.346,31.984 143.346 C 31.158 143.346,30.811 144.325,30.804 146.673 C 30.799 148.034,30.678 148.289,30.038 148.289 C 29.357 148.289,29.278 148.542,29.278 150.716 C 29.278 152.823,29.177 153.169,28.517 153.342 C 27.831 153.522,27.757 153.861,27.757 156.809 C 27.757 159.761,27.687 160.076,27.037 160.076 C 26.030 160.076,25.856 160.777,25.856 164.816 C 25.856 168.033,25.787 168.370,25.095 168.551 C 24.372 168.740,24.335 169.070,24.335 175.250 C 24.335 181.373,24.293 181.749,23.615 181.749 C 22.461 181.749,22.433 182.160,22.433 199.240 C 22.433 216.319,22.461 216.730,23.615 216.730 C 24.290 216.730,24.335 217.095,24.335 222.624 C 24.335 228.264,24.367 228.517,25.095 228.517 C 25.809 228.517,25.856 228.771,25.856 232.700 L 25.856 236.882 26.806 236.882 C 27.750 236.882,27.757 236.907,27.757 240.304 C 27.757 243.473,27.813 243.726,28.517 243.726 C 29.200 243.726,29.278 243.980,29.278 246.198 C 29.278 248.416,29.356 248.669,30.038 248.669 C 30.648 248.669,30.798 248.923,30.798 249.952 C 30.798 252.313,31.220 253.612,31.987 253.612 C 32.611 253.612,32.700 253.921,32.700 256.084 C 32.700 258.277,32.783 258.555,33.438 258.555 C 34.035 258.555,34.199 258.865,34.294 260.171 C 34.391 261.514,34.555 261.808,35.266 261.909 C 36.006 262.014,36.122 262.257,36.122 263.715 C 36.122 265.146,36.236 265.399,36.882 265.399 C 37.530 265.399,37.643 265.653,37.643 267.110 C 37.643 268.550,37.760 268.821,38.380 268.821 C 38.962 268.821,39.171 269.181,39.373 270.532 C 39.573 271.865,39.789 272.243,40.347 272.243 C 40.927 272.243,41.065 272.526,41.065 273.720 C 41.065 274.877,41.229 275.240,41.825 275.395 C 42.280 275.514,42.586 275.914,42.586 276.390 C 42.586 276.986,42.825 277.186,43.536 277.186 C 44.409 277.186,44.487 277.326,44.487 278.897 C 44.487 280.355,44.599 280.608,45.247 280.608 C 45.754 280.608,46.008 280.862,46.008 281.369 C 46.008 281.868,46.261 282.129,46.745 282.129 C 47.327 282.129,47.536 282.489,47.739 283.840 C 47.938 285.173,48.154 285.551,48.712 285.551 C 49.176 285.551,49.430 285.820,49.430 286.312 C 49.430 286.819,49.683 287.072,50.190 287.072 C 50.748 287.072,50.951 287.326,50.951 288.023 C 50.951 288.783,51.141 288.973,51.901 288.973 C 52.754 288.973,52.852 289.127,52.852 290.469 C 52.852 291.630,53.022 292.018,53.612 292.205 C 54.030 292.338,54.373 292.777,54.373 293.182 C 54.373 293.654,54.635 293.916,55.107 293.916 C 55.512 293.916,55.951 294.259,56.084 294.677 C 56.216 295.095,56.656 295.437,57.060 295.437 C 57.590 295.437,57.795 295.702,57.795 296.388 C 57.795 297.085,57.997 297.338,58.555 297.338 C 59.062 297.338,59.316 297.592,59.316 298.099 C 59.316 298.657,59.569 298.859,60.266 298.859 C 61.027 298.859,61.217 299.049,61.217 299.810 C 61.217 300.507,61.420 300.760,61.977 300.760 C 62.484 300.760,62.738 301.014,62.738 301.521 C 62.738 302.039,62.991 302.281,63.534 302.281 C 64.006 302.281,64.409 302.586,64.525 303.029 C 64.633 303.441,65.045 303.880,65.440 304.005 C 65.836 304.131,66.160 304.564,66.160 304.969 C 66.160 305.435,66.422 305.703,66.876 305.703 C 67.272 305.703,67.681 306.043,67.791 306.464 C 67.910 306.919,68.309 307.224,68.786 307.224 C 69.313 307.224,69.582 307.467,69.582 307.944 C 69.582 308.739,70.287 309.125,71.740 309.125 C 72.375 309.125,72.761 309.380,72.894 309.886 C 73.004 310.307,73.412 310.646,73.809 310.646 C 74.271 310.646,74.525 310.916,74.525 311.407 C 74.525 312.925,77.477 312.461,77.770 310.897 C 78.177 308.727,77.864 307.430,76.901 307.293 C 76.351 307.215,76.046 306.909,76.046 306.437 C 76.046 305.965,75.783 305.703,75.308 305.703 C 74.730 305.703,74.545 305.395,74.453 304.278 C 74.366 303.230,74.108 302.752,73.479 302.476 C 73.009 302.270,72.624 301.799,72.624 301.431 C 72.624 301.014,72.336 300.760,71.863 300.760 C 71.345 300.760,71.103 300.507,71.103 299.964 C 71.103 299.504,70.800 299.089,70.386 298.981 C 69.897 298.853,69.593 298.319,69.430 297.305 C 69.246 296.154,69.022 295.817,68.437 295.817 C 67.884 295.817,67.681 295.562,67.681 294.867 C 67.681 294.170,67.478 293.916,66.920 293.916 C 66.304 293.916,66.160 293.663,66.160 292.577 C 66.160 291.518,65.961 291.148,65.209 290.805 C 64.686 290.567,64.259 290.057,64.259 289.673 C 64.259 289.227,63.983 288.973,63.498 288.973 C 62.850 288.973,62.738 288.720,62.738 287.262 C 62.738 285.823,62.621 285.551,62.000 285.551 C 61.422 285.551,61.237 285.242,61.145 284.125 C 61.058 283.077,60.800 282.600,60.171 282.324 C 59.502 282.031,59.316 281.637,59.316 280.518 C 59.316 279.355,59.177 279.087,58.577 279.087 C 57.980 279.087,57.816 278.778,57.721 277.471 C 57.624 276.128,57.460 275.835,56.749 275.734 C 56.009 275.629,55.894 275.385,55.894 273.928 C 55.894 272.497,55.779 272.243,55.133 272.243 C 54.456 272.243,54.373 271.990,54.373 269.926 C 54.373 267.950,54.264 267.581,53.632 267.416 C 53.075 267.270,52.863 266.831,52.777 265.645 C 52.682 264.342,52.513 264.047,51.806 263.947 C 50.997 263.832,50.951 263.654,50.951 260.646 C 50.951 257.825,50.867 257.439,50.208 257.230 C 49.594 257.035,49.445 256.585,49.352 254.638 C 49.251 252.524,49.151 252.269,48.384 252.160 C 47.556 252.042,47.529 251.903,47.529 247.882 C 47.529 243.980,47.482 243.726,46.768 243.726 C 46.047 243.726,46.008 243.473,46.008 238.783 C 46.008 234.094,45.969 233.840,45.247 233.840 C 44.499 233.840,44.487 233.587,44.487 217.871 C 44.487 202.155,44.499 201.901,45.247 201.901 C 45.971 201.901,46.008 201.648,46.008 196.693 C 46.008 193.828,46.190 190.021,46.413 188.233 C 47.119 182.561,48.806 174.326,49.409 173.599 C 49.598 173.371,50.010 172.160,50.325 170.908 C 51.045 168.038,51.979 165.271,52.898 163.283 C 53.291 162.433,53.612 161.539,53.612 161.297 C 53.612 160.892,54.037 159.857,55.909 155.703 C 57.959 151.156,63.351 140.453,64.294 139.063 C 64.894 138.177,65.389 137.317,65.392 137.152 C 65.396 136.987,65.717 136.388,66.106 135.821 C 66.494 135.254,67.984 132.994,69.416 130.798 C 70.848 128.603,72.370 126.367,72.797 125.831 C 73.224 125.295,73.916 124.374,74.335 123.784 C 78.440 117.994,90.180 105.411,96.008 100.554 C 97.262 99.508,98.631 98.367,99.049 98.019 C 100.472 96.834,103.997 94.110,105.264 93.216 C 107.468 91.662,114.236 87.206,114.829 86.919 C 115.143 86.766,116.255 86.152,117.300 85.554 C 121.500 83.149,130.794 78.708,131.630 78.706 C 131.905 78.705,132.689 78.363,133.374 77.945 C 134.059 77.528,134.921 77.186,135.290 77.186 C 135.659 77.186,136.629 76.846,137.446 76.429 C 138.263 76.013,139.539 75.571,140.283 75.447 C 141.027 75.324,142.662 74.904,143.916 74.515 C 162.047 68.895,181.533 68.987,201.141 74.784 C 202.918 75.310,204.800 75.923,205.323 76.147 C 206.213 76.528,207.525 77.040,211.217 78.448 C 213.430 79.292,222.989 84.240,225.352 85.765 C 227.380 87.075,230.537 89.170,232.319 90.391 C 235.681 92.692,243.277 99.233,246.789 102.852 C 255.423 111.746,264.760 124.516,269.126 133.403 C 269.398 133.957,269.786 134.667,269.987 134.981 C 270.187 135.295,270.690 136.236,271.103 137.072 C 271.516 137.909,272.015 138.850,272.212 139.163 C 272.601 139.784,273.413 141.591,275.285 146.008 C 275.950 147.576,276.821 149.555,277.220 150.405 C 277.620 151.255,277.947 152.149,277.947 152.391 C 277.947 152.633,278.277 153.563,278.681 154.458 C 279.376 155.997,279.965 157.680,281.179 161.597 C 281.470 162.538,281.981 164.163,282.314 165.209 C 284.049 170.665,285.394 175.868,286.123 179.946 C 286.413 181.568,286.747 183.052,286.866 183.243 C 288.617 186.078,287.620 195.209,285.842 192.613 C 285.656 192.341,285.561 192.368,285.557 192.693 C 285.554 192.961,285.851 193.292,286.217 193.429 C 287.244 193.815,287.865 194.793,287.325 195.175 C 287.069 195.355,287.231 195.390,287.707 195.256 C 288.769 194.959,289.114 195.948,288.764 198.284 L 288.507 200.000 290.261 200.000 C 291.726 200.000,292.015 199.882,292.015 199.284 C 292.015 198.888,292.355 198.479,292.776 198.369 C 293.462 198.190,293.536 197.850,293.536 194.903 C 293.536 191.671,293.546 191.635,294.487 191.635 C 295.425 191.635,295.437 191.595,295.437 188.429 C 295.437 185.556,295.516 185.197,296.198 184.981 C 296.920 184.752,296.958 184.406,296.958 178.138 C 296.958 171.581,296.964 171.535,297.814 171.414 L 298.669 171.293 298.776 161.597 C 298.893 150.993,298.835 150.354,297.718 150.000 C 296.998 149.771,296.958 149.422,296.958 143.285 C 296.958 137.131,296.921 136.801,296.198 136.612 C 295.514 136.433,295.437 136.093,295.437 133.233 C 295.437 130.158,295.406 130.045,294.487 129.814 C 293.567 129.583,293.536 129.471,293.536 126.385 C 293.536 123.447,293.476 123.194,292.776 123.194 C 292.093 123.194,292.015 122.940,292.015 120.722 C 292.015 118.504,291.937 118.251,291.255 118.251 C 290.578 118.251,290.494 117.997,290.494 115.961 C 290.494 113.888,290.404 113.631,289.544 113.239 C 288.770 112.886,288.593 112.534,288.593 111.346 C 288.593 110.139,288.461 109.886,287.833 109.886 C 287.156 109.886,287.072 109.632,287.072 107.595 C 287.072 105.502,286.990 105.273,286.122 104.943 C 285.325 104.640,285.171 104.334,285.171 103.051 C 285.171 101.774,285.045 101.521,284.411 101.521 C 283.853 101.521,283.650 101.267,283.650 100.570 C 283.650 99.883,283.446 99.620,282.912 99.620 C 282.314 99.620,282.151 99.310,282.056 98.004 C 281.959 96.660,281.795 96.367,281.084 96.266 C 280.362 96.164,280.228 95.911,280.228 94.650 C 280.228 93.424,280.096 93.156,279.490 93.156 C 278.892 93.156,278.729 92.846,278.634 91.540 C 278.537 90.197,278.373 89.903,277.662 89.802 C 277.042 89.715,276.806 89.426,276.806 88.757 C 276.806 88.086,276.597 87.833,276.046 87.833 C 275.539 87.833,275.285 87.579,275.285 87.072 C 275.285 86.565,275.032 86.312,274.525 86.312 C 273.938 86.312,273.764 86.058,273.764 85.202 C 273.764 83.598,273.402 82.890,272.583 82.890 C 272.117 82.890,271.863 82.622,271.863 82.129 C 271.863 81.622,271.610 81.369,271.103 81.369 C 270.545 81.369,270.342 81.115,270.342 80.418 C 270.342 79.658,270.152 79.468,269.392 79.468 C 268.695 79.468,268.441 79.265,268.441 78.707 C 268.441 78.200,268.188 77.947,267.681 77.947 C 267.046 77.947,266.920 77.693,266.920 76.416 C 266.920 75.134,266.766 74.828,265.970 74.525 C 265.447 74.326,265.019 73.902,265.019 73.584 C 265.019 73.257,264.687 73.004,264.259 73.004 C 263.760 73.004,263.498 72.750,263.498 72.269 C 263.498 71.865,263.174 71.431,262.779 71.306 C 262.383 71.180,261.971 70.741,261.864 70.330 C 261.748 69.886,261.344 69.582,260.872 69.582 C 260.330 69.582,260.076 69.340,260.076 68.821 C 260.076 68.323,259.823 68.061,259.342 68.061 C 258.870 68.061,258.565 67.755,258.487 67.205 C 258.408 66.656,258.059 66.306,257.510 66.228 C 256.960 66.150,256.654 65.845,256.654 65.373 C 256.654 64.770,256.382 64.639,255.133 64.639 C 253.764 64.639,253.612 64.544,253.612 63.688 C 253.612 62.928,253.422 62.738,252.662 62.738 C 251.965 62.738,251.711 62.535,251.711 61.977 C 251.711 61.470,251.458 61.217,250.951 61.217 C 250.458 61.217,250.190 60.963,250.190 60.497 C 250.190 59.677,249.482 59.316,247.878 59.316 C 247.022 59.316,246.768 59.142,246.768 58.555 C 246.768 58.048,246.515 57.795,246.008 57.795 C 245.501 57.795,245.247 57.541,245.247 57.034 C 245.247 56.482,244.994 56.274,244.323 56.274 C 243.654 56.274,243.365 56.037,243.277 55.418 C 243.181 54.736,242.875 54.539,241.769 54.447 C 240.773 54.364,240.328 54.123,240.189 53.592 C 240.037 53.013,239.661 52.852,238.465 52.852 C 237.168 52.852,236.917 52.722,236.814 51.996 C 236.713 51.285,236.419 51.121,235.076 51.024 C 233.770 50.929,233.460 50.765,233.460 50.168 C 233.460 49.634,233.197 49.430,232.510 49.430 C 231.812 49.430,231.559 49.227,231.559 48.669 C 231.559 47.987,231.305 47.909,229.087 47.909 C 226.705 47.909,226.616 47.875,226.616 46.958 C 226.616 46.107,226.461 46.008,225.139 46.008 C 223.983 46.008,223.620 45.843,223.464 45.247 C 223.306 44.643,222.945 44.487,221.709 44.487 C 220.567 44.487,220.152 44.332,220.152 43.907 C 220.152 43.145,218.612 42.586,216.515 42.586 C 215.082 42.586,214.829 42.471,214.829 41.825 C 214.829 41.124,214.575 41.065,211.597 41.065 C 208.619 41.065,208.365 41.005,208.365 40.304 C 208.365 39.600,208.112 39.544,204.943 39.544 C 201.546 39.544,201.521 39.537,201.521 38.593 L 201.521 37.643 196.578 37.643 C 191.888 37.643,191.635 37.604,191.635 36.882 C 191.635 36.133,191.381 36.122,174.144 36.122 C 156.993 36.122,156.654 36.136,156.654 36.871 M225.095 98.681 C 225.095 99.001,225.359 99.365,225.682 99.489 C 226.541 99.818,226.586 99.522,225.792 98.764 C 225.202 98.201,225.095 98.188,225.095 98.681 M240.334 110.587 C 240.318 110.868,240.631 111.183,241.029 111.287 C 241.428 111.392,241.840 111.804,241.944 112.202 C 242.049 112.601,242.364 112.925,242.645 112.922 C 242.980 112.918,243.015 112.820,242.748 112.637 C 242.524 112.483,242.229 112.058,242.094 111.692 C 241.959 111.326,241.601 111.027,241.298 111.027 C 240.996 111.027,240.661 110.813,240.556 110.551 C 240.412 110.194,240.357 110.203,240.334 110.587 M244.705 114.740 C 244.929 114.893,245.223 115.318,245.358 115.684 C 245.493 116.050,245.823 116.347,246.091 116.344 C 246.415 116.340,246.442 116.245,246.170 116.059 C 245.946 115.905,245.652 115.480,245.517 115.114 C 245.381 114.748,245.052 114.451,244.784 114.454 C 244.459 114.458,244.433 114.554,244.705 114.740 M95.817 143.825 C 95.817 144.158,95.518 144.509,95.152 144.605 C 94.528 144.768,94.529 144.781,95.164 144.823 C 95.851 144.868,96.488 143.890,96.055 143.456 C 95.924 143.326,95.817 143.492,95.817 143.825 M268.529 146.008 C 268.529 146.740,268.608 147.039,268.703 146.673 C 268.799 146.307,268.799 145.708,268.703 145.342 C 268.608 144.976,268.529 145.276,268.529 146.008 M285.259 187.833 C 285.259 188.565,285.338 188.864,285.433 188.498 C 285.529 188.132,285.529 187.533,285.433 187.167 C 285.338 186.801,285.259 187.101,285.259 187.833 M47.646 226.046 C 47.648 227.300,47.719 227.768,47.804 227.084 C 47.889 226.401,47.887 225.374,47.800 224.803 C 47.713 224.232,47.644 224.791,47.646 226.046 M49.430 237.792 C 49.430 238.083,49.711 238.430,50.054 238.561 C 50.922 238.894,50.943 238.707,50.127 237.928 C 49.596 237.421,49.430 237.389,49.430 237.792 M54.397 254.066 C 54.383 254.420,54.700 254.939,55.100 255.219 C 55.500 255.499,55.902 256.236,55.993 256.857 L 56.160 257.985 56.217 256.737 C 56.255 255.911,56.070 255.411,55.672 255.258 C 55.340 255.131,54.924 254.666,54.745 254.225 C 54.495 253.607,54.415 253.570,54.397 254.066 M57.795 262.887 C 57.795 263.178,58.076 263.525,58.419 263.656 C 59.287 263.989,59.308 263.802,58.492 263.023 C 57.961 262.516,57.795 262.484,57.795 262.887 M90.019 265.791 C 90.490 265.980,90.888 266.440,90.905 266.813 C 90.923 267.232,91.009 267.305,91.131 267.002 C 91.389 266.359,90.564 265.393,89.782 265.423 C 89.364 265.440,89.440 265.559,90.019 265.791 M66.160 279.670 C 66.160 279.990,66.424 280.353,66.746 280.477 C 67.606 280.807,67.651 280.511,66.857 279.753 C 66.267 279.190,66.160 279.177,66.160 279.670 M87.857 307.653 C 87.826 308.435,88.792 309.260,89.436 309.001 C 89.738 308.880,89.666 308.794,89.246 308.775 C 88.874 308.759,88.414 308.360,88.225 307.890 C 87.992 307.311,87.873 307.234,87.857 307.653 M119.011 309.886 C 119.430 310.304,120.114 310.989,120.532 311.407 C 121.092 311.967,121.293 312.023,121.293 311.623 C 121.293 311.323,120.959 310.972,120.552 310.843 C 120.144 310.713,119.705 310.274,119.576 309.866 C 119.446 309.459,119.095 309.125,118.796 309.125 C 118.395 309.125,118.452 309.326,119.011 309.886 M124.166 315.079 C 124.681 315.634,125.215 315.976,125.352 315.839 C 125.490 315.702,125.422 315.589,125.203 315.589 C 124.983 315.589,124.714 315.247,124.605 314.829 C 124.495 314.411,124.141 314.068,123.818 314.068 C 123.375 314.068,123.461 314.318,124.166 315.079 M140.114 327.635 C 140.532 327.750,141.016 328.039,141.189 328.276 C 141.396 328.561,141.451 328.514,141.349 328.137 C 141.264 327.823,140.781 327.535,140.274 327.496 C 139.548 327.441,139.514 327.470,140.114 327.635 M161.977 339.605 C 162.291 339.885,162.771 340.371,163.044 340.684 C 163.463 341.165,163.486 341.106,163.192 340.304 C 162.999 339.781,162.519 339.295,162.124 339.224 C 161.496 339.111,161.478 339.159,161.977 339.605 M170.414 342.821 C 170.767 342.926,171.142 343.301,171.248 343.655 C 171.387 344.120,171.418 344.089,171.362 343.540 C 171.316 343.097,170.971 342.752,170.528 342.707 C 169.980 342.651,169.948 342.682,170.414 342.821 " stroke="none" fill="#000000" fill-rule="evenodd"></path><path id="path1" d="M163.308 70.691 C 154.805 71.739,149.498 72.785,143.916 74.515 C 142.662 74.904,141.027 75.324,140.283 75.447 C 139.539 75.571,138.263 76.013,137.446 76.429 C 136.629 76.846,135.659 77.186,135.290 77.186 C 134.921 77.186,134.059 77.528,133.374 77.945 C 132.689 78.363,131.905 78.705,131.630 78.706 C 130.794 78.708,121.500 83.149,117.300 85.554 C 116.255 86.152,115.143 86.766,114.829 86.919 C 114.236 87.206,107.468 91.662,105.264 93.216 C 103.997 94.110,100.472 96.834,99.049 98.019 C 98.631 98.367,97.262 99.508,96.008 100.554 C 90.180 105.411,78.440 117.994,74.335 123.784 C 73.916 124.374,73.224 125.295,72.797 125.831 C 72.370 126.367,70.848 128.603,69.416 130.798 C 67.984 132.994,66.494 135.254,66.106 135.821 C 65.717 136.388,65.396 136.987,65.392 137.152 C 65.389 137.317,64.894 138.177,64.294 139.063 C 63.351 140.453,57.959 151.156,55.909 155.703 C 54.037 159.857,53.612 160.892,53.612 161.297 C 53.612 161.539,53.291 162.433,52.898 163.283 C 51.979 165.271,51.045 168.038,50.325 170.908 C 50.010 172.160,49.598 173.371,49.409 173.599 C 49.051 174.031,48.268 177.265,47.344 182.129 C 45.678 190.902,45.394 218.486,46.958 219.629 C 47.635 220.123,47.734 220.712,47.854 224.967 C 47.974 229.190,48.070 229.771,48.675 229.929 C 49.266 230.084,49.378 230.631,49.490 233.907 C 49.595 236.987,49.746 237.797,50.285 238.191 C 50.756 238.535,50.951 239.201,50.951 240.466 C 50.951 242.478,51.465 243.726,52.295 243.726 C 52.731 243.726,52.852 244.304,52.852 246.388 C 52.852 248.475,53.004 249.202,53.559 249.756 C 53.999 250.197,54.339 251.231,54.461 252.498 C 54.607 254.013,54.863 254.669,55.465 255.069 C 56.059 255.463,56.274 255.999,56.274 257.081 C 56.274 258.269,56.412 258.555,56.987 258.555 C 57.580 258.555,57.731 258.919,57.879 260.703 C 57.986 261.998,58.283 263.018,58.627 263.270 C 58.940 263.500,59.320 264.349,59.471 265.156 C 59.657 266.146,59.986 266.687,60.481 266.817 C 61.067 266.970,61.217 267.348,61.217 268.676 C 61.217 270.072,61.336 270.342,61.955 270.342 C 62.552 270.342,62.716 270.652,62.811 271.958 C 62.908 273.302,63.072 273.595,63.783 273.696 C 64.502 273.798,64.639 274.052,64.639 275.286 C 64.639 276.394,64.816 276.811,65.359 276.984 C 65.809 277.126,66.174 277.716,66.331 278.550 C 66.469 279.286,66.814 279.977,67.097 280.086 C 67.380 280.194,67.716 280.699,67.844 281.206 C 67.991 281.795,68.348 282.129,68.829 282.129 C 69.457 282.129,69.582 282.388,69.582 283.686 C 69.582 284.923,69.738 285.283,70.342 285.441 C 70.763 285.551,71.103 285.960,71.103 286.356 C 71.103 286.866,71.376 287.072,72.053 287.072 C 72.912 287.072,73.004 287.222,73.004 288.629 C 73.004 289.865,73.160 290.226,73.764 290.384 C 74.183 290.494,74.525 290.894,74.525 291.273 C 74.525 291.653,74.855 292.069,75.259 292.197 C 75.674 292.329,76.102 292.925,76.244 293.571 C 76.381 294.199,76.821 294.917,77.221 295.167 C 77.620 295.416,77.947 295.910,77.947 296.264 C 77.947 296.617,78.270 297.010,78.666 297.135 C 79.062 297.261,79.474 297.700,79.581 298.111 C 79.697 298.555,80.101 298.859,80.573 298.859 C 81.127 298.859,81.369 299.101,81.369 299.655 C 81.369 300.119,81.672 300.531,82.094 300.641 C 82.552 300.761,82.906 301.299,83.057 302.105 C 83.204 302.888,83.577 303.468,84.024 303.610 C 84.424 303.737,84.858 304.175,84.987 304.582 C 85.117 304.990,85.456 305.323,85.741 305.323 C 86.027 305.323,86.366 305.657,86.496 306.064 C 86.625 306.472,87.046 306.905,87.431 307.027 C 87.816 307.150,88.219 307.586,88.326 307.997 C 88.434 308.409,88.783 308.745,89.102 308.745 C 89.421 308.745,89.791 309.087,89.924 309.506 C 90.057 309.924,90.426 310.266,90.746 310.266 C 91.065 310.266,91.414 310.603,91.522 311.014 C 91.629 311.425,92.032 311.862,92.417 311.984 C 92.802 312.106,93.223 312.540,93.352 312.947 C 93.482 313.355,93.832 313.688,94.132 313.688 C 94.432 313.688,94.677 313.847,94.677 314.041 C 94.677 314.764,95.908 315.589,96.985 315.589 C 97.920 315.589,98.099 315.742,98.099 316.540 C 98.099 317.237,98.302 317.490,98.859 317.490 C 99.287 317.490,99.620 317.744,99.620 318.070 C 99.620 318.389,100.048 318.813,100.570 319.011 C 101.093 319.210,101.521 319.634,101.521 319.953 C 101.521 320.279,101.853 320.532,102.281 320.532 C 102.700 320.532,103.042 320.783,103.042 321.089 C 103.042 321.790,104.213 322.433,105.488 322.433 C 106.210 322.433,106.464 322.631,106.464 323.194 C 106.464 323.701,106.717 323.954,107.224 323.954 C 107.722 323.954,107.985 324.208,107.985 324.689 C 107.985 325.102,108.335 325.535,108.783 325.677 C 109.222 325.817,109.906 326.256,110.304 326.654 C 110.701 327.051,111.434 327.376,111.933 327.376 C 112.519 327.376,112.909 327.645,113.038 328.137 C 113.154 328.582,113.557 328.897,114.007 328.897 C 114.444 328.897,114.882 329.227,115.019 329.657 C 115.185 330.182,115.723 330.491,116.756 330.657 C 117.878 330.836,118.251 331.073,118.251 331.608 C 118.251 332.177,118.537 332.319,119.682 332.319 C 120.801 332.319,121.194 332.506,121.488 333.175 C 121.761 333.797,122.241 334.062,123.250 334.146 C 124.246 334.229,124.691 334.470,124.830 335.002 C 124.982 335.583,125.358 335.741,126.580 335.741 C 127.851 335.741,128.137 335.873,128.137 336.458 C 128.137 337.180,129.093 337.627,130.659 337.637 C 131.148 337.641,131.549 337.945,131.669 338.403 C 131.826 339.003,132.188 339.163,133.380 339.163 C 134.573 339.163,134.934 339.324,135.091 339.924 C 135.263 340.579,135.610 340.684,137.607 340.684 C 139.627 340.684,139.924 340.777,139.924 341.404 C 139.924 342.307,140.638 342.586,142.953 342.586 C 144.458 342.586,144.813 342.719,144.977 343.346 C 145.151 344.009,145.496 344.106,147.683 344.106 C 149.622 344.106,150.190 344.232,150.190 344.659 C 150.190 345.419,152.522 346.003,155.564 346.005 C 157.765 346.007,158.112 346.104,158.285 346.768 C 158.471 347.479,158.804 347.529,163.371 347.529 C 167.846 347.529,168.298 347.593,168.733 348.289 C 169.366 349.302,174.296 349.434,174.674 348.448 C 175.626 345.968,174.573 344.106,172.219 344.106 C 171.814 344.106,171.141 343.764,170.722 343.346 C 170.189 342.813,169.455 342.586,168.264 342.586 C 166.956 342.586,166.473 342.411,166.160 341.825 C 165.877 341.297,165.364 341.065,164.482 341.065 C 163.607 341.065,163.043 340.812,162.674 340.256 C 162.279 339.662,161.621 339.398,160.188 339.260 C 158.695 339.117,158.196 338.906,158.053 338.358 C 157.908 337.805,157.513 337.643,156.309 337.643 C 155.036 337.643,154.753 337.512,154.753 336.923 C 154.753 336.103,154.045 335.741,152.440 335.741 C 151.584 335.741,151.331 335.568,151.331 334.981 C 151.331 334.445,151.077 334.221,150.472 334.221 C 149.999 334.221,149.399 333.878,149.138 333.460 C 148.835 332.975,148.251 332.700,147.525 332.700 C 146.663 332.700,146.388 332.526,146.388 331.980 C 146.388 331.160,145.680 330.798,144.075 330.798 C 143.219 330.798,142.966 330.625,142.966 330.038 C 142.966 329.520,142.712 329.278,142.170 329.278 C 141.703 329.278,141.294 328.974,141.182 328.544 C 141.051 328.042,140.523 327.732,139.506 327.560 C 138.386 327.371,138.023 327.131,138.023 326.583 C 138.023 326.098,137.757 325.856,137.227 325.856 C 136.750 325.856,136.351 325.550,136.232 325.095 C 136.122 324.677,135.773 324.335,135.456 324.335 C 135.138 324.335,134.482 323.907,133.997 323.384 C 133.502 322.849,132.692 322.433,132.147 322.433 C 131.432 322.433,131.179 322.234,131.179 321.673 C 131.179 321.166,130.925 320.913,130.418 320.913 C 129.914 320.913,129.658 320.659,129.658 320.159 C 129.658 319.673,129.321 319.322,128.707 319.168 C 128.184 319.036,127.757 318.675,127.757 318.364 C 127.757 318.054,127.414 317.710,126.996 317.601 C 126.578 317.491,126.236 317.161,126.236 316.866 C 126.236 316.572,125.831 316.177,125.337 315.989 C 124.843 315.801,124.335 315.378,124.208 315.048 C 124.082 314.718,123.728 314.449,123.422 314.449 C 123.115 314.449,122.759 314.115,122.630 313.708 C 122.500 313.300,122.061 312.861,121.654 312.731 C 121.246 312.602,120.913 312.321,120.913 312.107 C 120.913 311.893,119.800 310.643,118.441 309.329 C 117.082 308.016,115.970 306.760,115.970 306.538 C 115.970 306.316,115.646 306.032,115.250 305.907 C 114.855 305.781,114.443 305.342,114.335 304.930 C 114.228 304.519,113.867 304.183,113.534 304.183 C 113.188 304.183,112.928 303.867,112.928 303.448 C 112.928 303.044,112.594 302.607,112.187 302.478 C 111.779 302.348,111.340 301.909,111.211 301.501 C 111.081 301.094,110.645 300.760,110.241 300.760 C 109.710 300.760,109.506 300.496,109.506 299.810 C 109.506 299.287,109.180 298.534,108.783 298.136 C 108.385 297.739,107.946 297.054,107.807 296.615 C 107.664 296.168,107.231 295.817,106.818 295.817 C 106.326 295.817,106.084 295.555,106.084 295.021 C 106.084 294.558,105.781 294.146,105.359 294.036 C 104.910 293.919,104.548 293.385,104.407 292.634 C 104.282 291.967,103.838 291.129,103.420 290.771 C 103.003 290.414,102.662 289.863,102.662 289.547 C 102.662 289.227,102.326 288.973,101.901 288.973 C 101.282 288.973,101.141 288.720,101.141 287.607 C 101.141 286.574,100.961 286.193,100.402 286.047 C 99.995 285.941,99.610 285.487,99.546 285.037 C 99.473 284.526,99.110 284.175,98.574 284.099 C 97.834 283.994,97.719 283.750,97.719 282.293 C 97.719 280.862,97.604 280.608,96.958 280.608 C 96.327 280.608,96.198 280.355,96.198 279.113 C 96.198 277.984,96.023 277.562,95.484 277.391 C 95.012 277.241,94.690 276.663,94.533 275.680 C 94.370 274.657,94.059 274.120,93.536 273.954 C 92.946 273.767,92.776 273.379,92.776 272.218 C 92.776 270.976,92.647 270.722,92.015 270.722 C 91.391 270.722,91.254 270.467,91.250 269.297 C 91.242 267.220,90.888 266.215,90.073 265.957 C 89.510 265.778,89.354 265.362,89.354 264.043 C 89.354 262.611,89.239 262.357,88.593 262.357 C 87.936 262.357,87.833 262.104,87.833 260.487 C 87.833 258.262,87.559 257.414,86.841 257.414 C 86.518 257.414,86.310 257.007,86.308 256.369 C 86.299 254.101,85.834 252.492,85.123 252.266 C 84.530 252.078,84.411 251.655,84.411 249.749 C 84.411 247.777,84.305 247.430,83.650 247.258 C 82.967 247.080,82.890 246.740,82.890 243.897 C 82.890 240.434,82.463 238.783,81.568 238.783 C 81.079 238.783,80.989 238.016,80.989 233.840 C 80.989 229.151,80.950 228.897,80.228 228.897 C 79.032 228.897,79.032 193.611,80.228 192.864 C 80.929 192.426,80.989 191.977,80.989 187.159 C 80.989 182.100,81.017 181.917,81.844 181.554 C 82.617 181.215,82.710 180.877,82.810 178.042 C 82.892 175.713,83.053 174.905,83.435 174.905 C 84.186 174.905,84.411 174.023,84.411 171.072 C 84.411 169.625,84.570 168.441,84.764 168.441 C 85.693 168.441,86.312 167.156,86.312 165.226 C 86.312 163.526,86.432 163.175,87.072 163.008 C 87.728 162.836,87.833 162.489,87.833 160.492 C 87.833 158.428,87.916 158.175,88.593 158.175 C 89.241 158.175,89.354 157.921,89.354 156.464 C 89.354 155.215,89.504 154.753,89.911 154.753 C 90.569 154.753,91.255 153.603,91.255 152.496 C 91.255 152.064,91.597 151.369,92.015 150.951 C 92.433 150.532,92.776 149.718,92.776 149.141 C 92.776 148.520,93.072 147.907,93.502 147.638 C 93.901 147.389,94.347 146.646,94.491 145.987 C 94.636 145.328,95.079 144.465,95.476 144.068 C 95.873 143.671,96.198 142.930,96.198 142.421 C 96.198 141.830,96.472 141.409,96.958 141.255 C 97.546 141.068,97.719 140.679,97.719 139.545 C 97.719 138.311,97.856 138.056,98.574 137.954 C 99.267 137.856,99.453 137.553,99.550 136.365 C 99.638 135.294,99.870 134.844,100.406 134.704 C 100.810 134.599,101.141 134.210,101.141 133.840 C 101.141 133.471,101.478 133.080,101.891 132.972 C 102.423 132.833,102.713 132.324,102.890 131.217 C 103.079 130.036,103.311 129.658,103.851 129.658 C 104.295 129.658,104.563 129.388,104.563 128.942 C 104.563 128.545,104.902 128.137,105.323 128.027 C 105.741 127.917,106.084 127.563,106.084 127.239 C 106.084 126.915,106.511 126.223,107.034 125.700 C 107.557 125.177,107.985 124.419,107.985 124.016 C 107.985 123.602,108.316 123.196,108.745 123.084 C 109.200 122.965,109.506 122.565,109.506 122.089 C 109.506 121.556,109.748 121.293,110.241 121.293 C 110.645 121.293,111.078 120.969,111.204 120.573 C 111.329 120.178,111.769 119.766,112.180 119.658 C 112.623 119.542,112.928 119.139,112.928 118.667 C 112.928 118.124,113.170 117.871,113.688 117.871 C 114.179 117.871,114.449 117.617,114.449 117.155 C 114.449 116.750,114.791 116.349,115.237 116.232 C 115.671 116.119,116.119 115.671,116.232 115.237 C 116.349 114.791,116.750 114.449,117.155 114.449 C 117.617 114.449,117.871 114.179,117.871 113.688 C 117.871 113.181,118.124 112.928,118.631 112.928 C 119.129 112.928,119.392 112.674,119.392 112.194 C 119.392 111.722,119.697 111.416,120.247 111.338 C 120.797 111.260,121.146 110.911,121.224 110.361 C 121.302 109.811,121.608 109.506,122.080 109.506 C 122.560 109.506,122.814 109.243,122.814 108.745 C 122.814 108.227,123.067 107.985,123.610 107.985 C 124.086 107.985,124.486 107.679,124.605 107.224 C 124.717 106.795,125.123 106.464,125.537 106.464 C 125.940 106.464,126.698 106.036,127.221 105.513 C 127.744 104.990,128.436 104.563,128.760 104.563 C 129.084 104.563,129.438 104.221,129.548 103.802 C 129.658 103.381,130.066 103.042,130.463 103.042 C 130.973 103.042,131.179 102.769,131.179 102.091 C 131.179 101.232,131.328 101.141,132.735 101.141 C 133.972 101.141,134.333 100.984,134.491 100.380 C 134.605 99.943,135.009 99.620,135.441 99.620 C 135.873 99.620,136.277 99.296,136.392 98.859 C 136.518 98.377,136.910 98.099,137.466 98.099 C 138.840 98.099,139.544 97.699,139.544 96.917 C 139.544 96.328,139.827 96.198,141.100 96.198 C 142.337 96.198,142.698 96.041,142.856 95.437 C 142.995 94.905,143.374 94.677,144.120 94.677 C 145.680 94.677,146.388 94.308,146.388 93.495 C 146.388 92.906,146.671 92.776,147.944 92.776 C 149.181 92.776,149.542 92.619,149.700 92.015 C 149.864 91.388,150.218 91.255,151.724 91.255 C 153.906 91.255,154.753 90.978,154.753 90.264 C 154.753 89.940,155.160 89.732,155.798 89.730 C 158.214 89.720,159.696 89.269,159.696 88.543 C 159.696 87.904,160.026 87.833,162.963 87.833 C 165.911 87.833,166.250 87.758,166.430 87.072 C 166.624 86.328,166.948 86.312,181.749 86.312 C 196.550 86.312,196.874 86.328,197.068 87.072 C 197.246 87.753,197.587 87.833,200.300 87.833 C 202.968 87.833,203.356 87.920,203.524 88.560 C 203.672 89.129,204.201 89.347,205.944 89.558 C 207.353 89.729,208.426 90.092,208.855 90.542 C 209.337 91.047,210.072 91.255,211.377 91.255 C 212.900 91.255,213.254 91.387,213.418 92.015 C 213.574 92.610,213.937 92.776,215.083 92.776 C 216.239 92.776,216.629 92.957,216.925 93.631 C 217.198 94.253,217.679 94.518,218.687 94.602 C 219.683 94.685,220.129 94.927,220.268 95.458 C 220.420 96.039,220.795 96.198,222.018 96.198 C 223.303 96.198,223.574 96.326,223.574 96.933 C 223.574 97.345,223.924 97.779,224.372 97.921 C 224.811 98.060,225.495 98.499,225.893 98.897 C 226.291 99.294,227.044 99.620,227.567 99.620 C 228.264 99.620,228.517 99.823,228.517 100.380 C 228.517 100.938,228.771 101.141,229.468 101.141 C 230.163 101.141,230.418 101.344,230.418 101.897 C 230.418 102.485,230.756 102.707,231.939 102.896 C 233.085 103.079,233.460 103.314,233.460 103.851 C 233.460 104.357,233.735 104.563,234.411 104.563 C 235.097 104.563,235.361 104.767,235.361 105.298 C 235.361 105.702,235.685 106.135,236.081 106.261 C 236.476 106.386,236.888 106.826,236.996 107.237 C 237.103 107.648,237.459 107.985,237.786 107.985 C 238.527 107.985,250.029 119.427,250.371 120.505 C 250.511 120.944,250.947 121.293,251.356 121.293 C 251.829 121.293,252.091 121.555,252.091 122.028 C 252.091 122.432,252.433 122.871,252.852 123.004 C 253.270 123.137,253.612 123.576,253.612 123.980 C 253.612 124.447,253.874 124.715,254.330 124.715 C 254.854 124.715,255.118 125.086,255.306 126.088 C 255.475 126.991,255.815 127.527,256.299 127.653 C 256.713 127.761,257.034 128.174,257.034 128.597 C 257.034 129.022,257.356 129.433,257.773 129.542 C 258.180 129.648,258.565 130.103,258.629 130.552 C 258.702 131.063,259.065 131.414,259.601 131.490 C 260.303 131.590,260.456 131.852,260.456 132.952 C 260.456 133.972,260.638 134.339,261.217 134.491 C 261.654 134.605,261.977 135.009,261.977 135.441 C 261.977 135.858,262.297 136.276,262.694 136.380 C 263.180 136.507,263.487 137.040,263.645 138.030 C 263.806 139.032,264.118 139.569,264.639 139.734 C 265.125 139.888,265.399 140.309,265.399 140.900 C 265.399 141.409,265.726 142.152,266.125 142.551 C 266.524 142.950,266.911 143.592,266.985 143.977 C 267.058 144.362,267.501 144.731,267.970 144.798 C 268.690 144.901,268.821 145.155,268.821 146.450 C 268.821 147.660,268.980 148.022,269.582 148.179 C 270.172 148.333,270.342 148.697,270.342 149.810 C 270.342 150.922,270.512 151.287,271.103 151.441 C 271.609 151.573,271.863 151.960,271.863 152.595 C 271.863 154.047,272.249 154.753,273.044 154.753 C 273.655 154.753,273.764 155.042,273.764 156.654 C 273.764 158.048,273.967 158.758,274.525 159.316 C 274.943 159.734,275.285 160.429,275.285 160.861 C 275.285 161.968,275.970 163.118,276.629 163.118 C 277.036 163.118,277.186 163.580,277.186 164.829 C 277.186 166.286,277.299 166.540,277.947 166.540 C 278.624 166.540,278.707 166.793,278.707 168.857 C 278.707 170.854,278.812 171.201,279.468 171.373 C 279.984 171.508,280.229 171.893,280.232 172.573 C 280.242 174.946,280.698 176.426,281.419 176.426 C 282.033 176.426,282.129 176.732,282.129 178.694 C 282.129 180.553,282.263 181.033,282.871 181.359 C 283.449 181.668,283.638 182.236,283.726 183.939 C 283.822 185.780,283.974 186.180,284.696 186.497 C 285.469 186.836,285.551 187.136,285.551 189.612 C 285.551 192.022,285.654 192.425,286.407 192.953 C 287.840 193.960,288.298 187.033,287.018 183.710 C 286.804 183.154,286.396 181.416,286.112 179.848 C 285.386 175.835,284.022 170.579,282.314 165.209 C 281.981 164.163,281.470 162.538,281.179 161.597 C 279.965 157.680,279.376 155.997,278.681 154.458 C 278.277 153.563,277.947 152.633,277.947 152.391 C 277.947 152.149,277.620 151.255,277.220 150.405 C 276.821 149.555,275.950 147.576,275.285 146.008 C 273.413 141.591,272.601 139.784,272.212 139.163 C 271.884 138.641,271.291 137.503,269.736 134.411 C 269.420 133.783,269.004 133.013,268.811 132.700 C 268.618 132.386,267.676 130.760,266.718 129.087 C 258.301 114.387,244.201 98.525,232.319 90.391 C 230.537 89.170,227.380 87.075,225.352 85.765 C 222.989 84.240,213.430 79.292,211.217 78.448 C 207.525 77.040,206.213 76.528,205.323 76.147 C 202.187 74.804,193.129 72.506,186.882 71.468 C 181.575 70.586,167.836 70.134,163.308 70.691 M287.519 195.388 C 286.690 195.913,287.098 198.289,288.018 198.289 C 288.858 198.289,289.165 197.393,288.810 195.978 C 288.563 194.994,288.318 194.882,287.519 195.388 " stroke="none" fill="#424242" fill-rule="evenodd"></path><path id="path2" d="M47.624 222.624 C 47.629 223.460,47.706 223.758,47.797 223.285 C 47.888 222.812,47.885 222.127,47.790 221.764 C 47.695 221.400,47.620 221.787,47.624 222.624 " stroke="none" fill="#7f7f7f" fill-rule="evenodd"></path><path id="path3" d="M219.186 29.945 C 219.294 30.227,219.232 30.365,219.048 30.251 C 218.680 30.024,218.370 32.012,218.563 33.365 C 218.670 34.122,218.903 34.221,220.581 34.221 C 221.625 34.221,222.401 34.349,222.306 34.506 C 221.929 35.129,223.063 35.674,225.447 36.015 C 226.930 36.228,228.059 37.076,227.278 37.392 C 227.018 37.497,227.685 37.596,228.760 37.613 C 230.377 37.637,230.705 37.757,230.661 38.308 C 230.620 38.826,230.987 39.015,232.319 39.163 C 233.735 39.321,234.009 39.477,233.907 40.071 C 233.817 40.590,233.948 40.724,234.382 40.558 C 234.711 40.431,234.981 40.494,234.981 40.696 C 234.981 40.899,235.109 41.044,235.266 41.020 C 236.798 40.778,238.335 41.145,238.505 41.793 C 238.610 42.195,239.099 42.578,239.595 42.648 C 240.090 42.718,240.494 43.018,240.494 43.314 C 240.494 43.611,240.732 43.932,241.023 44.029 C 241.373 44.146,241.460 44.029,241.279 43.681 C 241.130 43.392,241.258 43.462,241.564 43.836 C 241.870 44.209,242.267 44.489,242.448 44.456 C 243.240 44.313,243.726 44.526,243.726 45.016 C 243.726 45.308,243.992 45.648,244.316 45.772 C 244.712 45.924,244.819 45.844,244.641 45.528 C 244.434 45.161,244.488 45.162,244.887 45.532 C 245.169 45.794,245.707 46.008,246.084 46.008 C 246.460 46.008,246.768 46.274,246.768 46.600 C 246.768 46.926,246.925 47.096,247.116 46.978 C 247.307 46.860,247.522 46.939,247.594 47.154 C 247.665 47.369,248.270 47.584,248.937 47.632 C 249.744 47.690,250.211 47.951,250.332 48.412 C 250.432 48.794,250.869 49.199,251.303 49.312 C 251.736 49.426,252.091 49.737,252.091 50.004 C 252.091 50.572,252.929 50.951,254.188 50.951 C 254.740 50.951,255.172 51.234,255.317 51.692 C 255.446 52.099,255.886 52.538,256.293 52.668 C 256.701 52.797,257.034 53.152,257.034 53.457 C 257.034 53.762,257.472 54.178,258.008 54.381 C 258.543 54.585,258.882 54.911,258.762 55.106 C 258.641 55.301,258.717 55.568,258.929 55.700 C 259.142 55.831,259.328 55.629,259.342 55.251 C 259.366 54.637,259.404 54.644,259.696 55.323 C 259.876 55.741,260.035 55.934,260.049 55.752 C 260.064 55.569,260.290 55.598,260.551 55.815 C 260.813 56.032,261.198 56.181,261.407 56.146 C 261.616 56.112,261.842 56.469,261.909 56.939 C 261.997 57.563,262.285 57.795,262.971 57.795 C 263.656 57.795,263.881 57.976,263.800 58.460 C 263.727 58.897,263.969 59.166,264.508 59.242 C 265.006 59.313,265.419 59.722,265.560 60.286 C 265.688 60.795,265.918 61.193,266.071 61.169 C 266.880 61.045,267.253 61.279,267.058 61.787 C 266.860 62.301,267.498 62.566,268.536 62.402 C 268.804 62.360,268.985 63.287,268.851 64.020 C 268.817 64.203,269.069 64.245,269.409 64.114 C 269.855 63.943,270.148 64.196,270.458 65.018 C 270.759 65.815,271.144 66.160,271.735 66.160 C 272.665 66.160,273.764 67.453,273.764 68.548 C 273.764 68.932,273.935 69.141,274.144 69.011 C 274.354 68.882,274.525 68.958,274.525 69.179 C 274.525 69.401,274.706 69.582,274.927 69.582 C 275.149 69.582,275.207 69.368,275.057 69.106 C 274.897 68.830,274.927 68.765,275.129 68.951 C 275.320 69.126,275.475 69.640,275.475 70.091 C 275.475 70.703,275.694 70.901,276.331 70.867 C 277.098 70.826,277.250 71.060,277.164 72.148 C 277.152 72.305,277.537 72.526,278.019 72.639 C 278.551 72.764,278.945 73.176,279.019 73.685 C 279.093 74.199,279.409 74.525,279.832 74.525 C 280.257 74.525,280.504 74.781,280.471 75.190 C 280.438 75.611,280.732 75.900,281.274 75.977 C 282.020 76.083,282.332 76.665,282.174 77.662 C 282.150 77.818,282.464 77.947,282.873 77.947 C 283.423 77.947,283.681 78.297,283.869 79.295 C 284.008 80.037,284.207 80.558,284.311 80.454 C 284.597 80.169,285.415 81.102,285.719 82.057 C 285.866 82.521,286.145 82.802,286.340 82.682 C 286.534 82.562,286.860 82.902,287.064 83.437 C 287.267 83.973,287.675 84.411,287.969 84.411 C 288.581 84.411,289.083 85.702,288.980 87.013 C 288.922 87.745,289.046 87.861,289.675 87.661 C 290.303 87.462,290.462 87.610,290.562 88.481 C 290.647 89.219,290.887 89.528,291.350 89.491 C 291.819 89.454,292.028 89.734,292.059 90.441 C 292.145 92.400,292.212 92.586,292.844 92.590 C 293.739 92.597,293.869 92.805,293.977 94.405 C 294.042 95.373,294.286 95.883,294.754 96.032 C 295.130 96.151,295.437 96.596,295.437 97.019 C 295.437 97.470,295.753 97.872,296.198 97.989 C 296.921 98.178,297.019 98.415,297.110 100.190 C 297.134 100.674,297.460 100.995,298.004 101.072 C 298.744 101.177,298.859 101.421,298.859 102.878 C 298.859 104.309,298.974 104.563,299.620 104.563 C 300.253 104.563,300.380 104.816,300.380 106.076 C 300.380 107.374,300.516 107.624,301.331 107.829 C 302.211 108.050,302.654 109.995,302.334 112.239 C 302.314 112.383,302.636 112.609,303.050 112.740 C 303.723 112.954,304.083 114.315,303.836 115.717 C 303.806 115.892,304.128 116.126,304.552 116.237 C 305.313 116.436,305.540 117.290,305.368 119.297 C 305.327 119.767,305.467 120.152,305.677 120.152 C 305.888 120.152,305.961 120.409,305.841 120.722 C 305.689 121.118,305.867 121.293,306.423 121.293 C 307.226 121.293,307.341 121.836,307.326 125.570 C 307.324 125.968,307.610 126.236,308.034 126.236 C 308.668 126.236,309.137 129.837,308.790 132.034 C 308.766 132.191,308.926 132.319,309.148 132.319 C 309.369 132.319,309.445 132.490,309.316 132.700 C 308.987 133.232,309.638 133.175,310.190 132.624 C 310.545 132.269,310.646 132.944,310.646 135.662 C 310.646 138.745,310.736 139.213,311.407 139.632 C 312.102 140.066,312.167 140.519,312.167 144.882 C 312.167 148.176,312.315 149.817,312.643 150.170 C 313.023 150.579,313.023 150.628,312.643 150.414 C 312.381 150.266,312.167 150.342,312.167 150.583 C 312.167 150.825,312.493 151.107,312.890 151.211 C 313.883 151.471,314.075 154.888,313.930 169.772 C 313.775 185.720,313.812 185.080,313.020 185.332 C 312.524 185.489,312.347 185.963,312.333 187.164 C 312.252 194.134,312.074 195.756,311.405 195.627 C 311.040 195.557,310.747 195.699,310.754 195.944 C 310.844 199.169,310.571 203.801,310.300 203.633 C 309.386 203.068,308.896 203.897,308.828 206.121 C 308.755 208.526,308.532 209.273,307.986 208.936 C 307.525 208.651,307.307 209.696,307.239 212.510 C 307.190 214.529,307.037 215.057,306.338 215.607 C 305.875 215.971,305.456 216.746,305.408 217.328 C 305.360 217.911,304.979 218.705,304.561 219.094 C 303.980 219.636,303.802 220.292,303.802 221.895 C 303.802 223.677,303.704 223.971,303.137 223.876 C 302.600 223.786,302.428 224.132,302.246 225.665 C 302.122 226.711,301.994 227.432,301.961 227.268 C 301.928 227.104,301.536 227.165,301.089 227.404 C 300.441 227.751,300.383 227.905,300.804 228.172 C 301.184 228.412,301.198 228.507,300.856 228.511 C 300.587 228.515,300.380 228.993,300.380 229.611 C 300.380 230.213,300.081 230.940,299.715 231.227 C 299.098 231.711,299.091 231.694,299.620 230.989 C 300.149 230.283,300.142 230.266,299.525 230.750 C 299.125 231.063,298.859 231.785,298.859 232.556 C 298.859 233.587,298.709 233.840,298.099 233.840 C 297.681 233.840,297.367 233.969,297.402 234.125 C 297.616 235.078,296.802 237.214,296.162 237.382 C 295.763 237.486,295.437 237.769,295.437 238.010 C 295.437 238.259,295.642 238.325,295.913 238.162 C 296.278 237.943,296.288 238.003,295.953 238.425 C 295.715 238.727,295.456 239.316,295.378 239.734 C 295.300 240.152,294.982 240.494,294.672 240.494 C 294.361 240.494,294.052 240.879,293.985 241.350 C 293.916 241.833,293.585 242.218,293.225 242.235 C 292.829 242.254,292.767 242.338,293.061 242.457 C 293.322 242.563,293.536 242.800,293.536 242.986 C 293.536 243.171,293.279 243.224,292.966 243.103 C 292.425 242.896,292.335 243.068,292.242 244.487 C 292.222 244.800,291.818 245.227,291.345 245.435 C 290.871 245.642,290.568 246.032,290.672 246.302 C 290.775 246.571,290.436 246.984,289.916 247.221 C 289.398 247.457,288.952 247.965,288.926 248.350 C 288.900 248.735,288.836 249.221,288.783 249.430 C 288.731 249.639,288.667 249.981,288.641 250.190 C 288.615 250.399,288.331 250.570,288.011 250.570 C 287.691 250.570,287.317 250.870,287.180 251.236 C 287.044 251.602,286.622 252.125,286.242 252.398 C 285.862 252.671,285.538 253.356,285.521 253.919 C 285.505 254.482,285.406 254.731,285.301 254.471 C 285.031 253.805,284.143 254.744,283.818 256.038 C 283.591 256.941,283.231 257.208,282.414 257.079 C 282.258 257.054,282.129 257.443,282.129 257.944 C 282.129 258.605,281.861 258.920,281.144 259.100 C 280.522 259.256,280.232 259.539,280.358 259.867 C 280.482 260.190,280.209 260.474,279.632 260.619 C 279.042 260.767,278.707 261.123,278.707 261.604 C 278.707 262.040,278.452 262.357,278.101 262.357 C 277.768 262.357,277.406 262.700,277.296 263.118 C 277.182 263.555,276.778 263.878,276.346 263.878 C 275.918 263.878,275.510 264.201,275.399 264.626 C 275.291 265.038,274.879 265.477,274.484 265.602 C 274.088 265.728,273.764 266.143,273.764 266.524 C 273.764 266.954,273.389 267.312,272.779 267.465 C 272.122 267.630,271.865 267.897,272.007 268.267 C 272.206 268.785,271.546 269.039,270.532 268.835 C 270.323 268.792,270.274 268.880,270.424 269.030 C 270.824 269.430,270.026 270.722,269.378 270.722 C 269.072 270.722,268.821 271.065,268.821 271.483 C 268.821 272.073,268.568 272.243,267.693 272.243 C 266.859 272.243,266.620 272.389,266.777 272.799 C 266.933 273.205,266.768 273.311,266.160 273.194 C 265.599 273.086,265.390 273.192,265.516 273.520 C 265.633 273.826,265.400 273.997,264.886 273.980 C 264.389 273.965,263.923 274.288,263.694 274.810 C 263.487 275.280,263.016 275.665,262.647 275.665 C 262.231 275.665,261.977 275.953,261.977 276.426 C 261.977 276.882,261.711 277.201,261.312 277.224 C 258.741 277.369,258.744 277.367,258.832 278.210 C 258.907 278.936,258.709 279.060,257.311 279.161 C 256.053 279.252,255.715 279.422,255.756 279.943 C 255.796 280.438,255.522 280.608,254.688 280.608 C 254.072 280.608,253.663 280.764,253.781 280.954 C 254.240 281.698,253.559 282.348,252.366 282.305 C 250.689 282.244,250.190 282.470,250.190 283.289 C 250.190 283.838,249.846 284.012,248.574 284.104 C 247.443 284.185,246.958 284.392,246.958 284.791 C 246.958 285.202,246.451 285.394,245.143 285.477 C 243.994 285.551,243.418 285.740,243.574 285.994 C 243.736 286.254,243.528 286.300,242.976 286.125 C 242.262 285.898,242.167 285.971,242.363 286.591 C 242.508 287.046,242.414 287.339,242.116 287.361 C 241.851 287.381,240.996 287.437,240.215 287.486 C 239.221 287.549,238.729 287.785,238.574 288.274 C 238.391 288.849,237.952 288.973,236.096 288.973 C 234.094 288.973,233.840 289.059,233.840 289.734 C 233.840 290.400,233.569 290.501,231.654 290.548 C 230.452 290.578,229.040 290.621,228.517 290.643 C 227.921 290.669,227.427 291.003,227.191 291.540 L 226.816 292.395 211.741 292.395 C 196.746 292.395,196.666 292.391,196.458 291.597 C 196.343 291.157,196.078 290.904,195.869 291.033 C 195.661 291.162,195.382 291.093,195.250 290.879 C 195.118 290.666,194.379 290.514,193.608 290.541 C 190.504 290.652,189.828 290.515,189.624 289.734 C 189.514 289.316,189.195 288.976,188.914 288.979 C 188.526 288.984,188.540 289.074,188.973 289.354 C 189.287 289.556,189.358 289.725,189.132 289.728 C 188.905 289.731,188.601 289.615,188.455 289.469 C 188.153 289.166,187.469 289.039,185.471 288.915 C 184.457 288.851,184.161 288.703,184.422 288.390 C 185.007 287.684,184.425 287.452,182.066 287.452 C 180.846 287.452,179.827 287.281,179.800 287.072 C 179.774 286.863,179.731 286.478,179.705 286.217 C 179.656 285.728,179.493 285.680,177.592 285.599 C 176.837 285.567,176.399 285.306,176.236 284.791 C 176.048 284.200,175.660 284.030,174.499 284.030 C 173.677 284.030,173.004 283.847,173.004 283.623 C 173.004 283.121,172.015 282.097,171.598 282.168 C 170.676 282.324,169.962 282.062,169.962 281.566 C 169.962 281.256,169.540 280.897,169.025 280.768 C 168.510 280.639,167.996 280.244,167.884 279.891 C 167.760 279.499,167.216 279.214,166.487 279.158 C 164.943 279.041,164.639 278.831,164.639 277.884 C 164.639 277.366,164.457 277.175,164.097 277.313 C 163.783 277.433,163.301 277.132,162.949 276.595 C 162.616 276.087,162.218 275.689,162.065 275.713 C 160.657 275.929,159.738 275.589,159.627 274.810 C 159.546 274.239,159.285 273.992,158.840 274.066 C 158.474 274.128,158.154 273.999,158.127 273.781 C 158.101 273.563,158.058 273.178,158.032 272.926 C 158.006 272.674,157.557 272.363,157.034 272.235 C 156.382 272.076,156.122 271.786,156.207 271.311 C 156.297 270.810,156.163 270.684,155.720 270.853 C 155.307 271.012,154.972 270.784,154.680 270.145 C 154.444 269.626,154.097 269.202,153.909 269.202 C 153.721 269.202,153.676 269.415,153.808 269.677 C 153.940 269.938,153.814 269.895,153.528 269.582 C 153.241 269.268,152.758 268.772,152.454 268.480 C 152.039 268.082,152.032 268.024,152.426 268.248 C 152.777 268.448,152.895 268.380,152.782 268.041 C 152.689 267.763,152.025 267.468,151.306 267.386 C 149.790 267.213,149.785 267.210,149.650 266.290 C 149.594 265.904,149.307 265.589,149.013 265.589 C 148.719 265.589,148.310 265.204,148.104 264.734 C 147.897 264.263,147.427 263.878,147.058 263.878 C 146.641 263.878,146.388 263.591,146.388 263.118 C 146.388 262.700,146.137 262.357,145.831 262.357 C 145.525 262.357,145.091 262.015,144.867 261.597 C 144.643 261.179,144.584 260.837,144.736 260.837 C 144.888 260.837,144.680 260.567,144.274 260.238 C 143.868 259.909,143.772 259.761,144.061 259.911 C 144.409 260.091,144.526 260.004,144.409 259.654 C 144.312 259.363,144.048 259.125,143.821 259.125 C 143.293 259.125,142.776 258.608,142.776 258.080 C 142.776 257.853,142.538 257.589,142.247 257.492 C 141.897 257.375,141.810 257.492,141.990 257.840 C 142.140 258.129,142.004 258.049,141.689 257.663 C 141.374 257.276,141.209 256.720,141.322 256.427 C 141.504 255.952,140.828 255.691,139.829 255.849 C 139.672 255.873,139.544 255.477,139.544 254.969 C 139.544 254.395,139.270 253.957,138.824 253.815 C 138.429 253.690,138.017 253.250,137.909 252.839 C 137.802 252.428,137.463 252.091,137.156 252.091 C 136.802 252.091,136.512 251.547,136.360 250.596 C 136.195 249.563,135.886 249.026,135.361 248.859 C 134.943 248.727,134.601 248.287,134.601 247.883 C 134.601 247.402,134.338 247.148,133.840 247.148 C 133.322 247.148,133.080 246.895,133.080 246.354 C 133.080 245.917,132.772 245.275,132.397 244.928 C 132.021 244.581,131.935 244.446,132.206 244.628 C 132.509 244.831,132.700 244.805,132.700 244.559 C 132.700 244.338,132.366 244.052,131.959 243.923 C 131.551 243.793,131.112 243.354,130.982 242.946 C 130.853 242.539,130.502 242.205,130.203 242.205 C 129.872 242.205,129.641 241.793,129.614 241.160 C 129.530 239.152,129.463 238.974,128.819 239.023 C 128.331 239.061,128.107 238.656,127.918 237.396 C 127.700 235.936,127.568 235.750,126.904 235.961 C 126.484 236.094,126.227 236.056,126.334 235.877 C 126.664 235.320,125.911 233.840,125.297 233.840 C 124.929 233.840,124.693 233.455,124.657 232.795 C 124.625 232.220,124.582 231.492,124.562 231.179 C 124.541 230.865,124.140 230.554,123.669 230.487 C 122.882 230.375,122.497 229.003,122.769 227.281 C 122.793 227.125,122.685 227.016,122.529 227.041 C 121.541 227.197,121.293 226.875,121.293 225.440 C 121.293 224.203,121.137 223.842,120.532 223.684 C 119.999 223.545,119.772 223.166,119.772 222.416 C 119.772 221.280,118.805 220.000,118.220 220.361 C 118.021 220.484,117.871 219.478,117.871 218.020 C 117.871 216.613,117.765 215.569,117.635 215.698 C 117.165 216.168,116.327 214.829,116.278 213.532 C 116.230 212.250,115.541 211.537,114.795 211.998 C 114.603 212.117,114.449 211.271,114.449 210.098 C 114.449 208.742,114.290 207.985,114.005 207.985 C 113.761 207.985,113.673 207.873,113.809 207.737 C 113.945 207.601,113.809 207.302,113.506 207.072 C 113.193 206.835,112.923 205.914,112.881 204.943 C 112.835 203.870,112.532 202.924,112.070 202.407 C 111.646 201.934,111.308 200.962,111.274 200.126 C 111.242 199.315,111.034 198.702,110.805 198.743 C 110.578 198.784,110.393 198.577,110.393 198.285 C 110.393 197.992,110.558 197.854,110.759 197.978 C 110.960 198.103,111.046 197.967,110.949 197.677 C 110.852 197.386,110.588 197.148,110.361 197.148 C 109.679 197.148,109.576 196.864,109.400 194.487 C 109.308 193.232,109.051 192.205,108.830 192.205 C 108.130 192.205,108.014 191.845,107.942 189.431 C 107.872 187.113,107.680 186.820,106.369 187.027 C 106.212 187.052,106.084 185.532,106.084 183.650 C 106.084 180.482,106.027 180.228,105.323 180.228 C 104.761 180.228,104.563 179.975,104.563 179.256 C 104.563 178.000,101.442 177.964,101.204 179.217 C 101.131 179.602,100.745 180.244,100.346 180.643 C 99.771 181.218,99.620 181.918,99.620 184.005 C 99.620 186.307,99.523 186.671,98.859 186.882 C 98.163 187.103,98.099 187.457,98.099 191.090 C 98.099 193.278,97.941 195.057,97.746 195.057 C 96.226 195.057,96.198 195.436,96.198 215.592 C 96.198 234.898,96.321 236.882,97.519 236.882 C 98.002 236.882,98.099 237.554,98.099 240.910 C 98.099 244.618,98.159 244.954,98.859 245.137 C 99.539 245.315,99.620 245.656,99.620 248.330 C 99.620 250.913,99.724 251.390,100.380 251.799 C 100.933 252.145,101.142 252.690,101.146 253.799 C 101.154 256.057,101.510 257.034,102.326 257.034 C 102.949 257.034,103.042 257.336,103.042 259.351 C 103.042 261.328,103.151 261.697,103.782 261.862 C 104.339 262.007,104.551 262.446,104.638 263.632 C 104.733 264.936,104.901 265.230,105.608 265.331 C 106.387 265.441,106.464 265.657,106.464 267.743 C 106.464 269.713,106.570 270.061,107.224 270.232 C 107.824 270.389,107.985 270.751,107.985 271.943 C 107.985 273.105,108.151 273.499,108.702 273.643 C 109.194 273.772,109.496 274.308,109.663 275.357 C 109.835 276.433,110.128 276.941,110.657 277.079 C 111.222 277.227,111.407 277.601,111.407 278.597 C 111.407 279.587,111.593 279.968,112.146 280.112 C 112.552 280.219,112.937 280.673,113.001 281.122 C 113.074 281.634,113.438 281.985,113.973 282.061 C 114.699 282.164,114.829 282.415,114.829 283.712 C 114.829 284.923,114.988 285.284,115.589 285.441 C 116.010 285.551,116.350 285.960,116.350 286.356 C 116.350 286.819,116.619 287.072,117.110 287.072 C 117.644 287.072,117.872 287.327,117.876 287.928 C 117.886 289.536,118.326 290.494,119.056 290.494 C 119.529 290.494,119.772 290.764,119.772 291.290 C 119.772 291.754,120.075 292.166,120.497 292.276 C 120.964 292.398,121.310 292.940,121.472 293.803 C 121.636 294.675,121.980 295.208,122.459 295.334 C 122.873 295.442,123.194 295.854,123.194 296.278 C 123.194 296.710,123.517 297.114,123.954 297.228 C 124.375 297.338,124.715 297.747,124.715 298.143 C 124.715 298.591,124.983 298.859,125.431 298.859 C 125.836 298.859,126.237 299.202,126.353 299.648 C 126.467 300.082,126.914 300.529,127.348 300.643 C 127.794 300.760,128.137 301.160,128.137 301.565 C 128.137 302.028,128.406 302.281,128.897 302.281 C 129.395 302.281,129.658 302.535,129.658 303.015 C 129.658 303.487,129.964 303.793,130.513 303.871 C 131.063 303.949,131.412 304.298,131.490 304.848 C 131.568 305.398,131.874 305.703,132.346 305.703 C 132.826 305.703,133.080 305.966,133.080 306.464 C 133.080 306.962,133.333 307.224,133.814 307.224 C 134.286 307.224,134.591 307.530,134.669 308.080 C 134.747 308.630,135.097 308.979,135.646 309.057 C 136.196 309.135,136.502 309.441,136.502 309.912 C 136.502 310.393,136.765 310.646,137.262 310.646 C 137.769 310.646,138.023 310.900,138.023 311.407 C 138.023 311.917,138.276 312.167,138.793 312.167 C 139.264 312.167,139.703 312.536,139.924 313.118 C 140.123 313.641,140.540 314.068,140.852 314.068 C 141.163 314.068,141.601 314.411,141.825 314.829 C 142.112 315.365,142.621 315.589,143.549 315.589 C 144.701 315.589,144.867 315.709,144.867 316.540 C 144.867 317.217,145.073 317.490,145.583 317.490 C 145.979 317.490,146.388 317.830,146.498 318.251 C 146.612 318.688,147.017 319.011,147.449 319.011 C 147.862 319.011,148.284 319.330,148.386 319.720 C 148.506 320.181,149.068 320.523,149.993 320.696 C 150.941 320.874,151.479 321.208,151.607 321.698 C 151.713 322.103,152.081 322.433,152.424 322.433 C 152.768 322.433,153.263 322.776,153.524 323.194 C 153.852 323.718,154.411 323.954,155.326 323.954 C 156.375 323.954,156.654 324.105,156.654 324.674 C 156.654 325.469,157.359 325.856,158.812 325.856 C 159.447 325.856,159.834 326.110,159.966 326.616 C 160.122 327.212,160.485 327.376,161.641 327.376 C 162.685 327.376,163.118 327.540,163.118 327.933 C 163.118 328.615,164.279 329.278,165.473 329.278 C 165.959 329.278,166.571 329.620,166.832 330.038 C 167.149 330.545,167.719 330.798,168.543 330.798 C 169.367 330.798,169.937 331.052,170.254 331.559 C 170.635 332.169,171.141 332.319,172.817 332.319 C 174.612 332.319,174.905 332.420,174.905 333.039 C 174.905 333.944,175.619 334.221,177.952 334.221 C 179.463 334.221,179.840 334.358,180.038 334.981 C 180.246 335.636,180.613 335.741,182.681 335.741 C 184.697 335.741,185.112 335.854,185.266 336.444 C 185.493 337.312,187.001 337.643,190.732 337.643 C 193.283 337.643,193.536 337.711,193.536 338.403 C 193.536 339.125,193.790 339.163,198.479 339.163 C 203.169 339.163,203.422 339.202,203.422 339.924 C 203.422 340.673,203.676 340.684,219.998 340.684 C 236.253 340.684,236.577 340.670,236.772 339.924 C 236.957 339.215,237.291 339.163,241.715 339.163 C 246.139 339.163,246.472 339.112,246.658 338.403 C 246.831 337.740,247.178 337.642,249.379 337.638 C 253.077 337.632,254.693 337.289,254.958 336.454 C 255.148 335.855,255.573 335.741,257.630 335.741 C 259.823 335.741,260.076 335.663,260.076 334.981 C 260.076 334.299,260.330 334.221,262.540 334.221 C 264.852 334.221,265.019 334.162,265.243 333.270 C 265.463 332.392,265.651 332.319,267.696 332.319 C 269.577 332.319,269.947 332.205,270.152 331.559 C 270.339 330.971,270.727 330.798,271.863 330.798 C 272.999 330.798,273.388 330.626,273.574 330.038 C 273.724 329.567,274.149 329.278,274.693 329.278 C 276.555 329.278,278.051 328.771,278.232 328.079 C 278.372 327.544,278.777 327.376,279.928 327.376 C 281.090 327.376,281.483 327.210,281.628 326.659 C 281.756 326.167,282.293 325.866,283.341 325.698 C 284.418 325.526,284.925 325.233,285.064 324.704 C 285.210 324.145,285.586 323.954,286.543 323.954 C 287.414 323.954,287.979 323.710,288.301 323.194 C 288.562 322.776,289.066 322.433,289.419 322.433 C 289.773 322.433,290.167 322.105,290.294 321.704 C 290.450 321.215,291.023 320.890,292.031 320.720 C 293.171 320.527,293.536 320.289,293.536 319.738 C 293.536 319.163,293.810 319.011,294.845 319.011 C 295.674 319.011,296.337 318.758,296.651 318.321 C 296.925 317.941,297.464 317.513,297.850 317.368 C 298.236 317.224,298.641 316.765,298.750 316.348 C 298.875 315.867,299.269 315.589,299.823 315.589 C 301.094 315.589,301.901 315.204,301.901 314.598 C 301.901 314.307,302.216 314.068,302.601 314.068 C 302.985 314.068,303.495 313.641,303.733 313.118 C 303.971 312.595,304.427 312.167,304.745 312.167 C 305.070 312.167,305.323 311.834,305.323 311.407 C 305.323 310.824,305.577 310.646,306.408 310.646 C 307.039 310.646,307.923 310.248,308.519 309.696 C 309.083 309.173,309.707 308.745,309.906 308.745 C 310.104 308.745,310.266 308.403,310.266 307.985 C 310.266 307.466,310.520 307.224,311.062 307.224 C 311.538 307.224,311.938 306.919,312.057 306.464 C 312.167 306.046,312.566 305.703,312.946 305.703 C 313.371 305.703,313.682 305.376,313.757 304.848 C 313.835 304.298,314.184 303.949,314.734 303.871 C 315.284 303.793,315.589 303.487,315.589 303.015 C 315.589 302.535,315.852 302.281,316.350 302.281 C 316.857 302.281,317.110 302.028,317.110 301.521 C 317.110 301.014,317.364 300.760,317.871 300.760 C 318.428 300.760,318.631 300.507,318.631 299.810 C 318.631 299.049,318.821 298.859,319.582 298.859 C 320.279 298.859,320.532 298.657,320.532 298.099 C 320.532 297.592,320.786 297.338,321.293 297.338 C 321.850 297.338,322.053 297.085,322.053 296.388 C 322.053 295.627,322.243 295.437,323.004 295.437 C 323.701 295.437,323.954 295.234,323.954 294.677 C 323.954 294.170,324.208 293.916,324.715 293.916 C 325.222 293.916,325.475 293.663,325.475 293.156 C 325.475 292.649,325.729 292.395,326.236 292.395 C 326.793 292.395,326.996 292.142,326.996 291.445 C 326.996 290.684,327.186 290.494,327.947 290.494 C 328.644 290.494,328.897 290.292,328.897 289.734 C 328.897 289.227,329.151 288.973,329.658 288.973 C 330.215 288.973,330.418 288.720,330.418 288.023 C 330.418 287.337,330.623 287.072,331.153 287.072 C 331.557 287.072,331.991 286.749,332.116 286.353 C 332.242 285.957,332.681 285.545,333.092 285.438 C 333.518 285.327,333.840 284.918,333.840 284.491 C 333.840 284.059,334.164 283.654,334.601 283.540 C 335.180 283.389,335.361 283.021,335.361 282.001 C 335.361 280.901,335.514 280.640,336.217 280.540 C 336.767 280.462,337.116 280.113,337.194 279.563 C 337.272 279.013,337.578 278.707,338.049 278.707 C 338.650 278.707,338.783 278.436,338.783 277.213 C 338.783 275.952,338.917 275.699,339.639 275.597 C 340.189 275.519,340.538 275.170,340.616 274.620 C 340.694 274.070,341.000 273.764,341.471 273.764 C 341.991 273.764,342.205 273.500,342.205 272.858 C 342.205 272.272,342.474 271.882,342.966 271.753 C 343.521 271.608,343.726 271.234,343.726 270.368 C 343.726 269.454,343.943 269.100,344.677 268.821 C 345.473 268.518,345.627 268.212,345.627 266.930 C 345.627 265.653,345.753 265.399,346.388 265.399 C 346.936 265.399,347.148 265.146,347.148 264.493 C 347.148 263.917,347.416 263.517,347.884 263.395 C 348.366 263.268,348.707 262.734,348.874 261.842 C 349.034 260.988,349.397 260.397,349.850 260.254 C 350.396 260.080,350.570 259.663,350.570 258.530 C 350.570 257.288,350.699 257.034,351.331 257.034 C 351.864 257.034,352.093 256.779,352.096 256.179 C 352.106 254.652,352.526 253.687,353.267 253.493 C 353.832 253.345,353.992 252.958,353.992 251.747 C 353.992 250.444,354.116 250.190,354.753 250.190 C 355.389 250.190,355.513 249.937,355.513 248.634 C 355.513 247.422,355.674 247.035,356.239 246.887 C 357.078 246.668,357.402 245.714,357.409 243.441 C 357.414 242.080,357.535 241.825,358.175 241.825 C 358.812 241.825,358.935 241.572,358.935 240.269 C 358.935 239.061,359.097 238.670,359.655 238.524 C 360.227 238.374,360.428 237.844,360.632 235.935 C 360.838 234.008,361.034 233.497,361.623 233.343 C 362.247 233.180,362.357 232.804,362.357 230.834 C 362.357 228.771,362.441 228.517,363.118 228.517 C 363.800 228.517,363.878 228.264,363.878 226.071 C 363.878 224.011,363.991 223.590,364.594 223.398 C 365.410 223.139,365.779 221.727,365.779 218.865 C 365.779 217.325,365.940 216.813,366.540 216.438 C 367.217 216.015,367.300 215.551,367.300 212.208 C 367.300 208.881,367.380 208.433,368.001 208.271 C 368.802 208.061,369.202 204.864,369.202 198.656 C 369.202 195.466,369.271 195.128,369.962 194.947 C 370.708 194.752,370.722 194.428,370.722 177.567 C 370.722 160.705,370.708 160.381,369.962 160.186 C 369.284 160.009,369.202 159.668,369.202 157.047 C 369.202 151.286,368.792 148.289,368.005 148.289 C 367.363 148.289,367.300 147.929,367.300 144.261 C 367.300 140.553,367.240 140.217,366.540 140.034 C 365.885 139.863,365.779 139.513,365.774 137.503 C 365.768 134.516,365.503 133.576,364.604 133.341 C 363.989 133.180,363.878 132.793,363.878 130.798 C 363.878 128.766,363.775 128.419,363.118 128.247 C 362.491 128.083,362.357 127.728,362.357 126.222 C 362.357 124.077,362.081 123.194,361.409 123.194 C 361.124 123.194,360.817 122.486,360.666 121.483 C 360.464 120.132,360.255 119.772,359.673 119.772 C 359.024 119.772,358.935 119.494,358.935 117.455 C 358.935 115.458,358.830 115.110,358.175 114.939 C 357.643 114.800,357.414 114.420,357.414 113.675 C 357.414 112.114,357.046 111.407,356.233 111.407 C 355.644 111.407,355.513 111.124,355.513 109.850 C 355.513 108.614,355.357 108.253,354.753 108.095 C 354.180 107.945,353.992 107.576,353.992 106.598 C 353.992 105.708,353.783 105.222,353.327 105.054 C 352.412 104.716,352.104 104.179,352.097 102.911 C 352.093 102.153,351.864 101.771,351.331 101.631 C 350.894 101.517,350.570 101.112,350.570 100.681 C 350.570 100.249,350.247 99.844,349.810 99.730 C 349.277 99.591,349.049 99.211,349.049 98.462 C 349.049 97.421,348.213 96.198,347.501 96.198 C 347.307 96.198,347.148 95.856,347.148 95.437 C 347.148 94.930,346.895 94.677,346.388 94.677 C 345.755 94.677,345.627 94.423,345.627 93.163 C 345.627 91.866,345.492 91.615,344.677 91.411 C 344.082 91.262,343.726 90.903,343.726 90.453 C 343.726 89.987,343.458 89.734,342.966 89.734 C 342.374 89.734,342.205 89.480,342.205 88.591 C 342.205 87.845,341.875 87.160,341.255 86.621 C 340.732 86.166,340.304 85.569,340.304 85.293 C 340.304 85.017,339.962 84.791,339.544 84.791 C 339.025 84.791,338.783 84.537,338.783 83.995 C 338.783 83.519,338.478 83.119,338.023 83.000 C 337.602 82.890,337.262 82.481,337.262 82.085 C 337.262 81.575,336.989 81.369,336.312 81.369 C 335.601 81.369,335.361 81.168,335.361 80.573 C 335.361 80.096,335.056 79.697,334.601 79.578 C 334.180 79.468,333.840 79.059,333.840 78.663 C 333.840 78.200,333.571 77.947,333.080 77.947 C 332.582 77.947,332.319 77.693,332.319 77.213 C 332.319 76.741,332.014 76.435,331.464 76.357 C 330.914 76.279,330.565 75.930,330.487 75.380 C 330.409 74.830,330.103 74.525,329.631 74.525 C 329.151 74.525,328.897 74.262,328.897 73.764 C 328.897 73.207,328.644 73.004,327.947 73.004 C 327.236 73.004,326.996 72.803,326.996 72.208 C 326.996 71.744,326.693 71.332,326.271 71.222 C 325.872 71.118,325.460 70.706,325.356 70.307 C 325.250 69.902,324.834 69.582,324.415 69.582 C 324.001 69.582,323.579 69.263,323.477 68.873 C 323.358 68.417,322.800 68.071,321.912 67.905 C 320.885 67.712,320.532 67.456,320.532 66.903 C 320.532 66.364,320.271 66.160,319.582 66.160 C 318.877 66.160,318.631 65.958,318.631 65.381 C 318.631 64.667,318.433 64.612,316.255 64.716 L 313.878 64.829 313.878 66.160 C 313.878 67.250,314.033 67.512,314.734 67.612 C 315.353 67.700,315.589 67.989,315.589 68.658 C 315.589 69.310,315.800 69.582,316.307 69.582 C 316.831 69.582,317.095 69.953,317.283 70.955 C 317.453 71.858,317.792 72.393,318.276 72.520 C 318.690 72.628,319.011 73.041,319.011 73.464 C 319.011 73.896,319.335 74.300,319.772 74.415 C 320.193 74.525,320.532 74.933,320.532 75.330 C 320.532 75.781,320.801 76.046,321.259 76.046 C 321.810 76.046,322.048 76.411,322.241 77.551 C 322.411 78.559,322.736 79.132,323.225 79.287 C 323.626 79.415,323.954 79.850,323.954 80.254 C 323.954 80.726,324.216 80.989,324.688 80.989 C 325.160 80.989,325.466 81.294,325.544 81.844 C 325.622 82.394,325.971 82.743,326.521 82.821 C 327.246 82.924,327.376 83.175,327.376 84.473 C 327.376 85.652,327.541 86.046,328.094 86.190 C 328.582 86.318,328.887 86.852,329.049 87.866 C 329.196 88.785,329.493 89.354,329.826 89.354 C 330.123 89.354,330.420 89.739,330.487 90.209 C 330.565 90.759,330.914 91.108,331.464 91.186 C 332.204 91.291,332.319 91.535,332.319 92.992 C 332.319 94.423,332.434 94.677,333.080 94.677 C 333.713 94.677,333.840 94.930,333.840 96.190 C 333.840 97.488,333.976 97.738,334.791 97.943 C 335.601 98.146,335.741 98.400,335.741 99.661 C 335.741 100.887,335.872 101.141,336.502 101.141 C 337.179 101.141,337.262 101.394,337.262 103.458 C 337.262 105.455,337.367 105.802,338.023 105.973 C 338.555 106.113,338.783 106.492,338.783 107.238 C 338.783 108.798,339.152 109.506,339.965 109.506 C 340.596 109.506,340.684 109.805,340.684 111.952 C 340.684 114.044,340.792 114.431,341.427 114.633 C 342.041 114.828,342.190 115.278,342.283 117.225 C 342.384 119.339,342.484 119.594,343.251 119.703 C 344.061 119.818,344.106 119.996,344.106 123.030 C 344.106 125.982,344.167 126.236,344.867 126.236 C 345.581 126.236,345.627 126.489,345.627 130.418 C 345.627 134.347,345.673 134.601,346.388 134.601 C 347.110 134.601,347.149 134.856,347.152 139.639 C 347.158 145.858,347.407 147.568,348.347 147.814 C 349.466 148.106,349.436 171.863,348.317 171.863 C 347.914 171.863,347.506 172.163,347.410 172.529 C 347.315 172.894,347.217 170.670,347.192 167.586 C 347.159 163.379,347.029 161.976,346.673 161.971 C 346.354 161.967,346.385 161.840,346.768 161.583 C 347.257 161.256,347.216 161.098,346.483 160.483 C 345.679 159.808,345.627 159.474,345.627 155.003 C 345.627 150.575,345.574 150.224,344.867 150.000 C 344.449 149.867,344.095 149.471,344.081 149.119 C 344.067 148.767,343.966 147.281,343.857 145.817 C 343.747 144.354,343.664 142.842,343.671 142.458 C 343.680 141.992,343.495 141.833,343.115 141.978 C 342.793 142.102,342.647 142.033,342.778 141.821 C 342.906 141.614,342.829 141.445,342.608 141.445 C 342.358 141.445,342.205 140.280,342.205 138.367 C 342.205 135.610,342.126 135.269,341.445 135.091 C 340.733 134.905,340.379 133.018,340.657 130.891 C 340.691 130.628,340.283 130.247,339.751 130.045 C 338.864 129.707,338.783 129.489,338.783 127.411 C 338.783 125.480,338.671 125.111,338.023 124.905 C 337.284 124.670,337.065 123.708,337.239 121.450 C 337.309 120.541,336.353 119.584,335.749 119.958 C 335.525 120.096,335.367 120.068,335.397 119.895 C 335.701 118.144,335.298 116.350,334.601 116.350 C 333.942 116.350,333.840 116.096,333.840 114.463 C 333.840 113.118,333.637 112.382,333.130 111.897 C 332.740 111.523,332.306 110.585,332.167 109.812 C 332.000 108.891,331.656 108.326,331.165 108.171 C 330.469 107.950,330.186 106.911,330.402 105.367 C 330.449 105.027,330.257 104.923,329.862 105.075 C 329.233 105.316,329.135 105.162,328.723 103.292 C 328.549 102.503,328.322 102.275,327.877 102.446 C 327.370 102.640,327.349 102.583,327.749 102.100 C 328.146 101.622,328.122 101.521,327.613 101.521 C 327.209 101.521,326.996 101.194,326.996 100.570 C 326.996 99.873,326.793 99.620,326.236 99.620 C 325.673 99.620,325.475 99.366,325.475 98.644 C 325.475 97.421,324.794 96.104,324.316 96.400 C 324.000 96.595,323.777 95.803,323.909 94.962 C 323.934 94.805,323.793 94.677,323.596 94.677 C 323.399 94.677,323.305 94.329,323.386 93.904 C 323.494 93.345,323.356 93.161,322.889 93.239 C 322.433 93.315,322.208 93.038,322.122 92.294 C 322.056 91.715,321.877 91.319,321.724 91.413 C 321.268 91.695,320.490 91.040,320.361 90.266 C 320.295 89.869,320.021 89.596,319.752 89.660 C 319.375 89.750,319.383 89.620,319.790 89.090 C 320.080 88.712,320.174 88.523,319.999 88.670 C 319.537 89.058,318.631 88.018,318.631 87.099 C 318.631 86.565,318.386 86.312,317.871 86.312 C 317.364 86.312,317.110 86.058,317.110 85.551 C 317.110 85.052,316.857 84.791,316.373 84.791 C 315.791 84.791,315.582 84.431,315.378 83.073 C 315.184 81.777,314.969 81.381,314.500 81.457 C 314.121 81.519,313.835 81.257,313.768 80.787 C 313.707 80.362,313.279 79.849,312.817 79.646 C 312.355 79.443,311.977 79.021,311.977 78.707 C 311.977 78.394,311.592 78.082,311.122 78.015 C 310.572 77.937,310.266 77.632,310.266 77.160 C 310.266 76.754,310.006 76.426,309.684 76.426 C 309.097 76.426,308.312 74.957,308.620 74.434 C 308.710 74.280,308.476 74.269,308.100 74.410 C 307.523 74.626,307.489 74.575,307.886 74.086 C 308.436 73.409,308.156 73.004,307.139 73.004 C 306.743 73.004,306.497 72.875,306.592 72.719 C 306.687 72.562,306.526 72.213,306.234 71.943 C 305.942 71.674,305.703 71.557,305.703 71.685 C 305.703 71.813,305.447 71.661,305.133 71.347 C 304.441 70.655,304.383 70.189,305.038 70.583 C 305.361 70.777,305.346 70.662,304.991 70.225 C 304.704 69.871,304.307 69.582,304.109 69.582 C 303.537 69.582,302.670 68.562,302.965 68.236 C 303.112 68.073,302.933 68.047,302.567 68.178 C 302.066 68.358,301.901 68.216,301.901 67.605 C 301.901 67.159,301.788 66.906,301.650 67.044 C 301.512 67.183,301.165 66.962,300.879 66.553 C 300.593 66.145,300.114 65.905,299.815 66.020 C 299.425 66.170,299.313 66.003,299.423 65.434 C 299.554 64.752,299.391 64.639,298.267 64.639 C 297.024 64.639,296.716 64.272,296.913 63.023 C 296.938 62.866,296.616 62.738,296.198 62.738 C 295.691 62.738,295.437 62.484,295.437 61.977 C 295.437 61.420,295.184 61.217,294.487 61.217 C 293.790 61.217,293.536 61.014,293.536 60.456 C 293.536 59.787,293.160 59.531,292.338 59.638 C 292.202 59.656,291.985 59.248,291.856 58.733 C 291.687 58.058,291.361 57.795,290.700 57.795 C 290.193 57.795,289.657 57.597,289.507 57.356 C 289.330 57.068,289.404 57.021,289.724 57.219 C 290.050 57.420,290.154 57.344,290.037 56.992 C 289.858 56.457,289.708 56.407,288.049 56.321 C 287.399 56.288,287.089 56.020,287.004 55.418 C 286.937 54.948,286.668 54.541,286.407 54.515 C 286.145 54.489,285.760 54.446,285.551 54.420 C 285.342 54.394,285.171 54.100,285.171 53.767 C 285.171 53.433,284.829 53.071,284.411 52.962 C 283.992 52.853,283.650 52.616,283.650 52.437 C 283.650 51.966,281.671 51.033,280.925 51.153 C 280.527 51.216,280.206 50.915,280.062 50.342 C 279.896 49.679,279.570 49.430,278.868 49.430 C 278.227 49.430,277.994 49.280,278.177 48.985 C 278.362 48.686,278.244 48.620,277.819 48.783 C 277.471 48.916,277.186 48.874,277.186 48.689 C 277.186 48.504,277.400 48.266,277.662 48.161 C 277.923 48.055,277.381 47.955,276.458 47.939 C 275.534 47.922,274.886 47.801,275.018 47.669 C 275.620 47.067,274.448 46.008,273.181 46.008 C 271.984 46.008,271.668 45.721,271.818 44.772 C 271.843 44.615,271.735 44.507,271.578 44.532 C 269.904 44.796,268.441 44.420,268.441 43.726 C 268.441 43.308,268.313 42.949,268.156 42.928 C 267.999 42.907,267.429 42.850,266.889 42.800 C 265.626 42.684,265.019 42.299,265.019 41.613 C 265.019 41.311,264.891 41.085,264.734 41.110 C 263.369 41.325,262.044 40.980,261.884 40.368 C 261.750 39.857,261.308 39.656,260.226 39.615 C 259.415 39.585,258.692 39.384,258.620 39.169 C 258.549 38.954,258.336 38.874,258.147 38.991 C 257.958 39.107,257.917 38.908,258.055 38.547 C 258.248 38.044,258.158 37.948,257.671 38.135 C 257.321 38.269,257.034 38.241,257.034 38.073 C 257.034 37.905,256.321 37.739,255.450 37.705 C 253.776 37.640,253.422 37.474,253.422 36.755 C 253.422 36.476,252.528 36.270,251.005 36.198 C 249.022 36.104,248.555 35.956,248.403 35.374 C 248.204 34.613,247.458 34.363,245.062 34.254 C 244.166 34.213,243.415 33.950,243.225 33.611 C 242.958 33.134,242.801 33.121,242.294 33.534 C 241.768 33.961,241.718 33.935,241.938 33.350 C 242.101 32.916,242.023 32.691,241.724 32.729 C 238.859 33.098,234.981 32.643,234.981 31.939 C 234.981 31.220,234.728 31.179,230.259 31.179 C 225.049 31.179,224.268 31.034,224.615 30.131 C 224.787 29.681,224.683 29.589,224.210 29.770 C 223.861 29.904,223.574 29.852,223.574 29.653 C 223.574 29.455,222.543 29.324,221.282 29.362 C 219.533 29.415,219.036 29.553,219.186 29.945 " stroke="none" fill="#0082c5" fill-rule="evenodd"></path><path id="path4" d="M242.087 32.945 C 241.943 33.089,241.825 33.334,241.825 33.490 C 241.825 33.894,242.751 33.705,242.899 33.271 C 243.051 32.827,242.447 32.585,242.087 32.945 M221.679 34.506 C 221.692 35.130,222.410 35.890,222.698 35.583 C 222.866 35.404,222.789 35.180,222.526 35.087 C 222.263 34.993,222.145 34.760,222.263 34.568 C 222.382 34.377,222.297 34.221,222.076 34.221 C 221.854 34.221,221.676 34.349,221.679 34.506 M277.662 48.188 C 277.400 48.278,277.186 48.504,277.186 48.689 C 277.186 48.874,277.471 48.916,277.819 48.783 C 278.244 48.620,278.362 48.686,278.177 48.985 C 278.026 49.229,278.083 49.430,278.305 49.430 C 278.771 49.430,278.815 49.038,278.416 48.441 C 278.263 48.211,277.923 48.097,277.662 48.188 M299.591 64.658 C 299.575 64.752,299.504 65.128,299.434 65.494 C 299.294 66.229,299.809 66.396,300.211 65.746 C 300.351 65.519,300.276 65.143,300.043 64.910 C 299.810 64.677,299.607 64.564,299.591 64.658 M304.278 69.855 C 304.016 69.949,303.802 70.192,303.802 70.396 C 303.802 70.600,303.942 70.681,304.113 70.575 C 304.284 70.469,304.658 70.707,304.943 71.103 C 305.228 71.499,305.602 71.736,305.773 71.630 C 305.944 71.524,306.084 71.619,306.084 71.841 C 306.084 72.062,306.255 72.243,306.464 72.243 C 307.190 72.243,306.839 71.603,305.872 71.162 C 305.337 70.918,304.998 70.561,305.118 70.367 C 305.391 69.925,304.906 69.629,304.278 69.855 M278.188 72.880 C 278.425 73.053,278.713 73.536,278.829 73.954 C 278.993 74.554,279.023 74.520,278.968 73.794 C 278.929 73.288,278.641 72.804,278.327 72.719 C 277.950 72.618,277.903 72.672,278.188 72.880 M307.956 73.076 C 307.709 74.072,307.758 74.502,308.135 74.647 C 308.671 74.853,308.861 73.501,308.341 73.179 C 308.145 73.058,307.972 73.012,307.956 73.076 M283.778 79.818 C 283.839 80.720,284.791 81.472,284.791 80.618 C 284.791 80.379,284.632 80.281,284.438 80.401 C 284.244 80.521,284.002 80.232,283.900 79.758 C 283.727 78.952,283.720 78.956,283.778 79.818 M319.490 88.886 C 319.519 89.282,319.773 89.607,320.054 89.607 C 320.668 89.607,320.530 88.529,319.889 88.315 C 319.633 88.230,319.459 88.480,319.490 88.886 M327.723 102.146 C 327.294 102.675,327.290 102.745,327.704 102.496 C 328.023 102.304,328.350 102.386,328.554 102.708 C 328.736 102.996,328.886 103.061,328.886 102.852 C 328.886 101.863,328.261 101.484,327.723 102.146 M313.802 156.654 C 313.802 157.804,313.873 158.275,313.961 157.700 C 314.048 157.125,314.048 156.183,313.961 155.608 C 313.873 155.033,313.802 155.504,313.802 156.654 M313.845 168.251 C 313.846 172.015,313.903 173.504,313.972 171.559 C 314.041 169.614,314.041 166.534,313.971 164.715 C 313.901 162.895,313.845 164.487,313.845 168.251 M313.784 179.278 C 313.788 180.114,313.866 180.412,313.957 179.939 C 314.048 179.466,314.045 178.781,313.949 178.418 C 313.854 178.054,313.780 178.441,313.784 179.278 M310.877 195.658 C 310.520 196.590,310.626 196.842,311.062 196.095 C 311.277 195.724,311.641 195.537,311.869 195.678 C 312.118 195.832,312.176 195.759,312.013 195.496 C 311.633 194.881,311.149 194.950,310.877 195.658 M113.596 207.097 C 113.858 207.203,113.976 207.446,113.858 207.637 C 113.740 207.828,113.825 207.985,114.046 207.985 C 114.267 207.985,114.449 207.728,114.449 207.414 C 114.449 207.101,114.149 206.858,113.783 206.874 C 113.382 206.892,113.307 206.981,113.596 207.097 M299.027 230.836 C 298.697 231.368,299.527 231.559,299.951 231.048 C 300.266 230.668,300.226 230.545,299.787 230.545 C 299.468 230.545,299.125 230.676,299.027 230.836 M292.228 242.854 C 292.101 243.185,292.087 243.544,292.196 243.654 C 292.306 243.763,292.395 243.635,292.395 243.369 C 292.395 243.094,292.643 242.979,292.966 243.103 C 293.279 243.224,293.536 243.175,293.536 242.995 C 293.536 242.371,292.458 242.256,292.228 242.854 M131.816 243.976 C 131.528 244.264,132.248 245.247,132.746 245.247 C 132.930 245.247,133.080 245.076,133.080 244.867 C 133.080 244.658,132.866 244.529,132.605 244.582 C 132.343 244.634,132.172 244.463,132.224 244.202 C 132.330 243.674,132.193 243.599,131.816 243.976 M283.831 254.782 C 283.693 255.216,283.682 255.672,283.806 255.795 C 283.929 255.919,284.030 255.735,284.030 255.387 C 284.030 255.038,284.202 254.753,284.411 254.753 C 284.620 254.753,284.791 254.582,284.791 254.373 C 284.791 253.679,284.086 253.979,283.831 254.782 M152.471 268.547 C 152.785 268.822,153.227 269.258,153.454 269.517 C 153.776 269.885,153.866 269.868,153.866 269.436 C 153.866 269.133,153.424 268.697,152.883 268.467 C 152.061 268.117,151.994 268.130,152.471 268.547 M265.602 272.604 C 265.466 272.824,265.407 273.017,265.472 273.033 C 266.502 273.288,266.937 273.246,266.823 272.902 C 266.624 272.307,265.895 272.128,265.602 272.604 M161.953 276.206 C 162.172 276.470,162.238 276.799,162.101 276.936 C 161.963 277.074,162.050 277.186,162.294 277.186 C 162.538 277.186,162.738 277.015,162.738 276.806 C 162.738 276.597,162.780 276.314,162.833 276.177 C 162.885 276.040,162.619 275.883,162.241 275.827 C 161.727 275.752,161.655 275.847,161.953 276.206 " stroke="none" fill="#00ffff" fill-rule="evenodd"></path></g></svg>